<svg xmlns="http://www.w3.org/2000/svg" width="456" height="384" viewBox="0 0 456 384"><defs><clipPath id="c0"><circle cx="64" cy="293.55" r="39" /></clipPath><clipPath id="c1"><circle cx="392" cy="293.55" r="39" /></clipPath><clipPath id="c2"><ellipse cx="228" cy="199" rx="164" ry="172" /></clipPath><clipPath id="c3"><circle cx="96.8" cy="107.08" r="42.64" /></clipPath><clipPath id="c4"><circle cx="359.2" cy="107.08" r="42.64" /></clipPath><clipPath id="c5"><circle cx="228" cy="214.17" r="11.48" /></clipPath><clipPath id="c6"><circle cx="157.48" cy="159.48" r="47.56" /></clipPath><clipPath id="c7"><circle cx="298.52" cy="159.48" r="47.56" /></clipPath><clipPath id="c8"><circle cx="157.48" cy="162.33" r="14.27" /></clipPath><clipPath id="c9"><circle cx="298.52" cy="162.33" r="14.27" /></clipPath><clipPath id="c10"><rect x="167.32" y="228.6" width="121.36" height="33.12" rx="14.4" /></clipPath></defs><g clip-path="url(#c0)"><circle cx="64" cy="293.55" r="39" fill="#c7cdd6"/><rect x="24" y="254.55" width="80" height="5.19" fill="#8d9298"/><rect x="24" y="259.14" width="80" height="5.19" fill="#8b9096"/><rect x="24" y="263.73" width="80" height="5.19" fill="#8a8e94"/><rect x="24" y="268.31" width="80" height="5.19" fill="#888c92"/><rect x="24" y="272.9" width="80" height="5.19" fill="#868a90"/><rect x="24" y="277.49" width="80" height="5.19" fill="#84888e"/><rect x="24" y="282.08" width="80" height="5.19" fill="#82868c"/><rect x="24" y="286.67" width="80" height="5.19" fill="#80848a"/><rect x="24" y="291.26" width="80" height="5.19" fill="#7f8288"/><rect x="24" y="295.84" width="80" height="5.19" fill="#7d8186"/><rect x="24" y="300.43" width="80" height="5.19" fill="#7b7f84"/><rect x="24" y="305.02" width="80" height="5.19" fill="#797d82"/><rect x="24" y="309.61" width="80" height="5.19" fill="#777b80"/><rect x="24" y="314.2" width="80" height="5.19" fill="#75797e"/><rect x="24" y="318.79" width="80" height="5.19" fill="#74777c"/><rect x="24" y="323.37" width="80" height="5.19" fill="#72757a"/><rect x="24" y="327.96" width="80" height="5.19" fill="#707378"/></g><circle cx="64" cy="293.55" r="39" fill="none" stroke="rgba(52,58,78,0.34)" stroke-width="2.2" stroke-linejoin="round"/><g clip-path="url(#c1)"><circle cx="392" cy="293.55" r="39" fill="#c7cdd6"/><rect x="352" y="254.55" width="80" height="5.19" fill="#8d9298"/><rect x="352" y="259.14" width="80" height="5.19" fill="#8b9096"/><rect x="352" y="263.73" width="80" height="5.19" fill="#8a8e94"/><rect x="352" y="268.31" width="80" height="5.19" fill="#888c92"/><rect x="352" y="272.9" width="80" height="5.19" fill="#868a90"/><rect x="352" y="277.49" width="80" height="5.19" fill="#84888e"/><rect x="352" y="282.08" width="80" height="5.19" fill="#82868c"/><rect x="352" y="286.67" width="80" height="5.19" fill="#80848a"/><rect x="352" y="291.26" width="80" height="5.19" fill="#7f8288"/><rect x="352" y="295.84" width="80" height="5.19" fill="#7d8186"/><rect x="352" y="300.43" width="80" height="5.19" fill="#7b7f84"/><rect x="352" y="305.02" width="80" height="5.19" fill="#797d82"/><rect x="352" y="309.61" width="80" height="5.19" fill="#777b80"/><rect x="352" y="314.2" width="80" height="5.19" fill="#75797e"/><rect x="352" y="318.79" width="80" height="5.19" fill="#74777c"/><rect x="352" y="323.37" width="80" height="5.19" fill="#72757a"/><rect x="352" y="327.96" width="80" height="5.19" fill="#707378"/></g><circle cx="392" cy="293.55" r="39" fill="none" stroke="rgba(52,58,78,0.34)" stroke-width="2.2" stroke-linejoin="round"/><g clip-path="url(#c2)"><ellipse cx="228" cy="199" rx="164" ry="172" fill="#c7cdd6"/><rect x="63" y="27" width="330" height="20.84" fill="#c7cdd6"/><rect x="63" y="47.24" width="330" height="20.84" fill="#c7cdd6"/><rect x="63" y="67.47" width="330" height="20.84" fill="#c7cdd6"/><rect x="63" y="87.71" width="330" height="20.84" fill="#c7cdd6"/><rect x="63" y="107.94" width="330" height="20.84" fill="#c5cbd4"/><rect x="63" y="128.18" width="330" height="20.84" fill="#bdc3cb"/><rect x="63" y="148.41" width="330" height="20.84" fill="#b5bac2"/><rect x="63" y="168.65" width="330" height="20.84" fill="#adb2ba"/><rect x="63" y="188.88" width="330" height="20.84" fill="#a5a9b1"/><rect x="63" y="209.12" width="330" height="20.84" fill="#9ca1a8"/><rect x="63" y="229.35" width="330" height="20.84" fill="#94999f"/><rect x="63" y="249.59" width="330" height="20.84" fill="#8c9097"/><rect x="63" y="269.82" width="330" height="20.84" fill="#84888e"/><rect x="63" y="290.06" width="330" height="20.84" fill="#7c8085"/><rect x="63" y="310.29" width="330" height="20.84" fill="#74777d"/><rect x="63" y="330.53" width="330" height="20.84" fill="#6c6f74"/><rect x="63" y="350.76" width="330" height="20.84" fill="#64676b"/></g><ellipse cx="228" cy="199" rx="164" ry="172" fill="none" stroke="rgba(52,58,78,0.34)" stroke-width="2.2" stroke-linejoin="round"/><g clip-path="url(#c3)"><circle cx="96.8" cy="107.08" r="42.64" fill="#c7cdd6"/><rect x="53.16" y="64.44" width="87.28" height="5.62" fill="#c7cdd6"/><rect x="53.16" y="69.46" width="87.28" height="5.62" fill="#c7cdd6"/><rect x="53.16" y="74.47" width="87.28" height="5.62" fill="#c7cdd6"/><rect x="53.16" y="79.49" width="87.28" height="5.62" fill="#c7cdd6"/><rect x="53.16" y="84.51" width="87.28" height="5.62" fill="#c7cdd6"/><rect x="53.16" y="89.52" width="87.28" height="5.62" fill="#c7cdd6"/><rect x="53.16" y="94.54" width="87.28" height="5.62" fill="#c7cdd6"/><rect x="53.16" y="99.56" width="87.28" height="5.62" fill="#c7cdd6"/><rect x="53.16" y="104.57" width="87.28" height="5.62" fill="#c7cdd6"/><rect x="53.16" y="109.59" width="87.28" height="5.62" fill="#c7cdd6"/><rect x="53.16" y="114.6" width="87.28" height="5.62" fill="#c5cbd4"/><rect x="53.16" y="119.62" width="87.28" height="5.62" fill="#c3c9d2"/><rect x="53.16" y="124.64" width="87.28" height="5.62" fill="#c1c7d0"/><rect x="53.16" y="129.65" width="87.28" height="5.62" fill="#bfc5ce"/><rect x="53.16" y="134.67" width="87.28" height="5.62" fill="#bdc3cc"/><rect x="53.16" y="139.69" width="87.28" height="5.62" fill="#bbc1c9"/><rect x="53.16" y="144.7" width="87.28" height="5.62" fill="#b9bfc7"/></g><circle cx="96.8" cy="107.08" r="42.64" fill="none" stroke="rgba(52,58,78,0.34)" stroke-width="2.2" stroke-linejoin="round"/><g clip-path="url(#c4)"><circle cx="359.2" cy="107.08" r="42.64" fill="#c7cdd6"/><rect x="315.56" y="64.44" width="87.28" height="5.62" fill="#c7cdd6"/><rect x="315.56" y="69.46" width="87.28" height="5.62" fill="#c7cdd6"/><rect x="315.56" y="74.47" width="87.28" height="5.62" fill="#c7cdd6"/><rect x="315.56" y="79.49" width="87.28" height="5.62" fill="#c7cdd6"/><rect x="315.56" y="84.51" width="87.28" height="5.62" fill="#c7cdd6"/><rect x="315.56" y="89.52" width="87.28" height="5.62" fill="#c7cdd6"/><rect x="315.56" y="94.54" width="87.28" height="5.62" fill="#c7cdd6"/><rect x="315.56" y="99.56" width="87.28" height="5.62" fill="#c7cdd6"/><rect x="315.56" y="104.57" width="87.28" height="5.62" fill="#c7cdd6"/><rect x="315.56" y="109.59" width="87.28" height="5.62" fill="#c7cdd6"/><rect x="315.56" y="114.6" width="87.28" height="5.62" fill="#c5cbd4"/><rect x="315.56" y="119.62" width="87.28" height="5.62" fill="#c3c9d2"/><rect x="315.56" y="124.64" width="87.28" height="5.62" fill="#c1c7d0"/><rect x="315.56" y="129.65" width="87.28" height="5.62" fill="#bfc5ce"/><rect x="315.56" y="134.67" width="87.28" height="5.62" fill="#bdc3cc"/><rect x="315.56" y="139.69" width="87.28" height="5.62" fill="#bbc1c9"/><rect x="315.56" y="144.7" width="87.28" height="5.62" fill="#b9bfc7"/></g><circle cx="359.2" cy="107.08" r="42.64" fill="none" stroke="rgba(52,58,78,0.34)" stroke-width="2.2" stroke-linejoin="round"/><g clip-path="url(#c5)"><circle cx="228" cy="214.17" r="11.48" fill="#c7cdd6"/><rect x="215.52" y="202.69" width="24.96" height="1.95" fill="#a3a8af"/><rect x="215.52" y="204.04" width="24.96" height="1.95" fill="#a2a7ae"/><rect x="215.52" y="205.4" width="24.96" height="1.95" fill="#a2a7ae"/><rect x="215.52" y="206.75" width="24.96" height="1.95" fill="#a1a6ad"/><rect x="215.52" y="208.1" width="24.96" height="1.95" fill="#a1a5ad"/><rect x="215.52" y="209.45" width="24.96" height="1.95" fill="#a0a5ac"/><rect x="215.52" y="210.8" width="24.96" height="1.95" fill="#a0a4ac"/><rect x="215.52" y="212.15" width="24.96" height="1.95" fill="#9fa4ab"/><rect x="215.52" y="213.5" width="24.96" height="1.95" fill="#9ea3aa"/><rect x="215.52" y="214.85" width="24.96" height="1.95" fill="#9ea3aa"/><rect x="215.52" y="216.2" width="24.96" height="1.95" fill="#9da2a9"/><rect x="215.52" y="217.55" width="24.96" height="1.95" fill="#9da2a9"/><rect x="215.52" y="218.9" width="24.96" height="1.95" fill="#9ca1a8"/><rect x="215.52" y="220.25" width="24.96" height="1.95" fill="#9ca0a7"/><rect x="215.52" y="221.6" width="24.96" height="1.95" fill="#9ba0a7"/><rect x="215.52" y="222.95" width="24.96" height="1.95" fill="#9b9fa6"/><rect x="215.52" y="224.3" width="24.96" height="1.95" fill="#9a9fa6"/></g><circle cx="228" cy="214.17" r="11.48" fill="none" stroke="rgba(52,58,78,0.34)" stroke-width="2.2" stroke-linejoin="round"/><ellipse cx="228" cy="87.2" rx="77.52" ry="18.92" fill="#f5f2e4" opacity="0.01"/><ellipse cx="228" cy="87.2" rx="62.02" ry="15.14" fill="#f5f2e4" opacity="0.05"/><ellipse cx="228" cy="87.2" rx="46.51" ry="11.35" fill="#f5f2e4" opacity="0.09"/><g clip-path="url(#c6)"><circle cx="157.48" cy="159.48" r="47.56" fill="#f4e5c5"/></g><circle cx="157.48" cy="159.48" r="47.56" fill="none" stroke="rgba(90,72,44,0.45)" stroke-width="2.6" stroke-linejoin="round"/><g clip-path="url(#c7)"><circle cx="298.52" cy="159.48" r="47.56" fill="#f4e5c5"/></g><circle cx="298.52" cy="159.48" r="47.56" fill="none" stroke="rgba(90,72,44,0.45)" stroke-width="2.6" stroke-linejoin="round"/><g clip-path="url(#c8)"><circle cx="157.48" cy="162.33" r="14.27" fill="#4e3c27"/></g><circle cx="157.48" cy="162.33" r="14.27" fill="none" stroke="rgba(255,255,255,0.10)" stroke-width="1.4" stroke-linejoin="round"/><g clip-path="url(#c9)"><circle cx="298.52" cy="162.33" r="14.27" fill="#4e3c27"/></g><circle cx="298.52" cy="162.33" r="14.27" fill="none" stroke="rgba(255,255,255,0.10)" stroke-width="1.4" stroke-linejoin="round"/><g clip-path="url(#c10)"><rect x="167.32" y="228.6" width="121.36" height="33.12" rx="14.4" fill="#4e3c27"/></g><rect x="167.32" y="228.6" width="121.36" height="33.12" rx="14.4" fill="none" stroke="rgba(255,255,255,0.10)" stroke-width="1.4" stroke-linejoin="round"/></svg>