<svg xmlns="http://www.w3.org/2000/svg" width="456" height="384" viewBox="0 0 456 384"><defs><clipPath id="c0"><circle cx="64" cy="293.55" r="39" /></clipPath><clipPath id="c1"><circle cx="392" cy="293.55" r="39" /></clipPath><clipPath id="c2"><ellipse cx="228" cy="199" rx="164" ry="172" /></clipPath><clipPath id="c3"><rect x="31.89" y="116.43" width="61.99" height="86.1" rx="27.9" /></clipPath><clipPath id="c4"><rect x="362.12" y="116.43" width="61.99" height="86.1" rx="27.9" /></clipPath><clipPath id="c5"><rect x="25" y="153.97" width="75.77" height="11.02" rx="5.51" /></clipPath><clipPath id="c6"><rect x="355.23" y="153.97" width="75.77" height="11.02" rx="5.51" /></clipPath><clipPath id="c7"><polygon points="353.95,27 357.48,27.2 360.96,27.79 364.35,28.77 367.61,30.12 370.7,31.83 373.58,33.87 376.22,36.22 378.57,38.86 380.61,41.74 382.32,44.83 383.67,48.09 384.65,51.48 385.24,54.96 385.44,58.49 385.44,276.54 384.85,287.11 383.07,297.56 380.14,307.74 376.09,317.52 370.96,326.79 364.83,335.43 357.77,343.33 349.87,350.39 341.23,356.52 331.96,361.65 322.18,365.7 312,368.63 301.55,370.41 290.98,371 165.02,371 154.45,370.41 144,368.63 133.82,365.7 124.04,361.65 114.77,356.52 106.13,350.39 98.23,343.33 91.17,335.43 85.04,326.79 79.91,317.52 75.86,307.74 72.93,297.56 71.15,287.11 70.56,276.54 70.56,58.49 70.76,54.96 71.35,51.48 72.33,48.09 73.68,44.83 75.39,41.74 77.43,38.86 79.78,36.22 82.42,33.87 85.3,31.83 88.39,30.12 91.65,28.77 95.04,27.79 98.52,27.2 102.05,27" /></clipPath><clipPath id="c8"><circle cx="154.2" cy="159.48" r="50.18" /></clipPath><clipPath id="c9"><circle cx="301.8" cy="159.48" r="50.18" /></clipPath><clipPath id="c10"><circle cx="154.2" cy="162.49" r="15.06" /></clipPath><clipPath id="c11"><circle cx="301.8" cy="162.49" r="15.06" /></clipPath><clipPath id="c12"><rect x="162.4" y="228.6" width="131.2" height="31.68" rx="12.96" /></clipPath></defs><g clip-path="url(#c0)"><circle cx="64" cy="293.55" r="39" fill="#c7cdd6"/><rect x="24" y="254.55" width="80" height="5.19" fill="#8d9298"/><rect x="24" y="259.14" width="80" height="5.19" fill="#8b9096"/><rect x="24" y="263.73" width="80" height="5.19" fill="#8a8e94"/><rect x="24" y="268.31" width="80" height="5.19" fill="#888c92"/><rect x="24" y="272.9" width="80" height="5.19" fill="#868a90"/><rect x="24" y="277.49" width="80" height="5.19" fill="#84888e"/><rect x="24" y="282.08" width="80" height="5.19" fill="#82868c"/><rect x="24" y="286.67" width="80" height="5.19" fill="#80848a"/><rect x="24" y="291.26" width="80" height="5.19" fill="#7f8288"/><rect x="24" y="295.84" width="80" height="5.19" fill="#7d8186"/><rect x="24" y="300.43" width="80" height="5.19" fill="#7b7f84"/><rect x="24" y="305.02" width="80" height="5.19" fill="#797d82"/><rect x="24" y="309.61" width="80" height="5.19" fill="#777b80"/><rect x="24" y="314.2" width="80" height="5.19" fill="#75797e"/><rect x="24" y="318.79" width="80" height="5.19" fill="#74777c"/><rect x="24" y="323.37" width="80" height="5.19" fill="#72757a"/><rect x="24" y="327.96" width="80" height="5.19" fill="#707378"/></g><circle cx="64" cy="293.55" r="39" fill="none" stroke="rgba(52,58,78,0.34)" stroke-width="2.2" stroke-linejoin="round"/><g clip-path="url(#c1)"><circle cx="392" cy="293.55" r="39" fill="#c7cdd6"/><rect x="352" y="254.55" width="80" height="5.19" fill="#8d9298"/><rect x="352" y="259.14" width="80" height="5.19" fill="#8b9096"/><rect x="352" y="263.73" width="80" height="5.19" fill="#8a8e94"/><rect x="352" y="268.31" width="80" height="5.19" fill="#888c92"/><rect x="352" y="272.9" width="80" height="5.19" fill="#868a90"/><rect x="352" y="277.49" width="80" height="5.19" fill="#84888e"/><rect x="352" y="282.08" width="80" height="5.19" fill="#82868c"/><rect x="352" y="286.67" width="80" height="5.19" fill="#80848a"/><rect x="352" y="291.26" width="80" height="5.19" fill="#7f8288"/><rect x="352" y="295.84" width="80" height="5.19" fill="#7d8186"/><rect x="352" y="300.43" width="80" height="5.19" fill="#7b7f84"/><rect x="352" y="305.02" width="80" height="5.19" fill="#797d82"/><rect x="352" y="309.61" width="80" height="5.19" fill="#777b80"/><rect x="352" y="314.2" width="80" height="5.19" fill="#75797e"/><rect x="352" y="318.79" width="80" height="5.19" fill="#74777c"/><rect x="352" y="323.37" width="80" height="5.19" fill="#72757a"/><rect x="352" y="327.96" width="80" height="5.19" fill="#707378"/></g><circle cx="392" cy="293.55" r="39" fill="none" stroke="rgba(52,58,78,0.34)" stroke-width="2.2" stroke-linejoin="round"/><g clip-path="url(#c2)"><ellipse cx="228" cy="199" rx="164" ry="172" fill="#c7cdd6"/><rect x="63" y="27" width="330" height="20.84" fill="#c7cdd6"/><rect x="63" y="47.24" width="330" height="20.84" fill="#c7cdd6"/><rect x="63" y="67.47" width="330" height="20.84" fill="#c7cdd6"/><rect x="63" y="87.71" width="330" height="20.84" fill="#c7cdd6"/><rect x="63" y="107.94" width="330" height="20.84" fill="#c5cbd4"/><rect x="63" y="128.18" width="330" height="20.84" fill="#bdc3cb"/><rect x="63" y="148.41" width="330" height="20.84" fill="#b5bac2"/><rect x="63" y="168.65" width="330" height="20.84" fill="#adb2ba"/><rect x="63" y="188.88" width="330" height="20.84" fill="#a5a9b1"/><rect x="63" y="209.12" width="330" height="20.84" fill="#9ca1a8"/><rect x="63" y="229.35" width="330" height="20.84" fill="#94999f"/><rect x="63" y="249.59" width="330" height="20.84" fill="#8c9097"/><rect x="63" y="269.82" width="330" height="20.84" fill="#84888e"/><rect x="63" y="290.06" width="330" height="20.84" fill="#7c8085"/><rect x="63" y="310.29" width="330" height="20.84" fill="#74777d"/><rect x="63" y="330.53" width="330" height="20.84" fill="#6c6f74"/><rect x="63" y="350.76" width="330" height="20.84" fill="#64676b"/></g><ellipse cx="228" cy="199" rx="164" ry="172" fill="none" stroke="rgba(52,58,78,0.34)" stroke-width="2.2" stroke-linejoin="round"/><g clip-path="url(#c3)"><rect x="31.89" y="116.43" width="61.99" height="86.1" rx="27.9" fill="#c7cdd6"/><rect x="30.89" y="116.43" width="63.99" height="5.66" fill="#c5cbd3"/><rect x="30.89" y="121.49" width="63.99" height="5.66" fill="#c3c8d1"/><rect x="30.89" y="126.56" width="63.99" height="5.66" fill="#c1c6cf"/><rect x="30.89" y="131.62" width="63.99" height="5.66" fill="#bfc4cd"/><rect x="30.89" y="136.69" width="63.99" height="5.66" fill="#bcc2cb"/><rect x="30.89" y="141.75" width="63.99" height="5.66" fill="#bac0c9"/><rect x="30.89" y="146.82" width="63.99" height="5.66" fill="#b8bec6"/><rect x="30.89" y="151.88" width="63.99" height="5.66" fill="#b6bcc4"/><rect x="30.89" y="156.95" width="63.99" height="5.66" fill="#b4bac2"/><rect x="30.89" y="162.01" width="63.99" height="5.66" fill="#b2b8c0"/><rect x="30.89" y="167.08" width="63.99" height="5.66" fill="#b0b6be"/><rect x="30.89" y="172.14" width="63.99" height="5.66" fill="#aeb4bb"/><rect x="30.89" y="177.21" width="63.99" height="5.66" fill="#acb1b9"/><rect x="30.89" y="182.27" width="63.99" height="5.66" fill="#aaafb7"/><rect x="30.89" y="187.34" width="63.99" height="5.66" fill="#a8adb5"/><rect x="30.89" y="192.4" width="63.99" height="5.66" fill="#a6abb3"/><rect x="30.89" y="197.47" width="63.99" height="5.66" fill="#a4a9b0"/></g><rect x="31.89" y="116.43" width="61.99" height="86.1" rx="27.9" fill="none" stroke="rgba(52,58,78,0.34)" stroke-width="2.2" stroke-linejoin="round"/><g clip-path="url(#c4)"><rect x="362.12" y="116.43" width="61.99" height="86.1" rx="27.9" fill="#c7cdd6"/><rect x="361.12" y="116.43" width="63.99" height="5.66" fill="#c5cbd3"/><rect x="361.12" y="121.49" width="63.99" height="5.66" fill="#c3c8d1"/><rect x="361.12" y="126.56" width="63.99" height="5.66" fill="#c1c6cf"/><rect x="361.12" y="131.62" width="63.99" height="5.66" fill="#bfc4cd"/><rect x="361.12" y="136.69" width="63.99" height="5.66" fill="#bcc2cb"/><rect x="361.12" y="141.75" width="63.99" height="5.66" fill="#bac0c9"/><rect x="361.12" y="146.82" width="63.99" height="5.66" fill="#b8bec6"/><rect x="361.12" y="151.88" width="63.99" height="5.66" fill="#b6bcc4"/><rect x="361.12" y="156.95" width="63.99" height="5.66" fill="#b4bac2"/><rect x="361.12" y="162.01" width="63.99" height="5.66" fill="#b2b8c0"/><rect x="361.12" y="167.08" width="63.99" height="5.66" fill="#b0b6be"/><rect x="361.12" y="172.14" width="63.99" height="5.66" fill="#aeb4bb"/><rect x="361.12" y="177.21" width="63.99" height="5.66" fill="#acb1b9"/><rect x="361.12" y="182.27" width="63.99" height="5.66" fill="#aaafb7"/><rect x="361.12" y="187.34" width="63.99" height="5.66" fill="#a8adb5"/><rect x="361.12" y="192.4" width="63.99" height="5.66" fill="#a6abb3"/><rect x="361.12" y="197.47" width="63.99" height="5.66" fill="#a4a9b0"/></g><rect x="362.12" y="116.43" width="61.99" height="86.1" rx="27.9" fill="none" stroke="rgba(52,58,78,0.34)" stroke-width="2.2" stroke-linejoin="round"/><g clip-path="url(#c5)"><rect x="25" y="153.97" width="75.77" height="11.02" rx="5.51" fill="#c7cdd6"/><rect x="24" y="153.97" width="77.77" height="1.25" fill="#b6bcc4"/><rect x="24" y="154.62" width="77.77" height="1.25" fill="#b6bcc4"/><rect x="24" y="155.27" width="77.77" height="1.25" fill="#b6bbc4"/><rect x="24" y="155.91" width="77.77" height="1.25" fill="#b6bbc3"/><rect x="24" y="156.56" width="77.77" height="1.25" fill="#b5bbc3"/><rect x="24" y="157.21" width="77.77" height="1.25" fill="#b5bbc3"/><rect x="24" y="157.86" width="77.77" height="1.25" fill="#b5bac3"/><rect x="24" y="158.51" width="77.77" height="1.25" fill="#b5bac2"/><rect x="24" y="159.16" width="77.77" height="1.25" fill="#b4bac2"/><rect x="24" y="159.8" width="77.77" height="1.25" fill="#b4bac2"/><rect x="24" y="160.45" width="77.77" height="1.25" fill="#b4b9c1"/><rect x="24" y="161.1" width="77.77" height="1.25" fill="#b4b9c1"/><rect x="24" y="161.75" width="77.77" height="1.25" fill="#b3b9c1"/><rect x="24" y="162.4" width="77.77" height="1.25" fill="#b3b8c1"/><rect x="24" y="163.05" width="77.77" height="1.25" fill="#b3b8c0"/><rect x="24" y="163.69" width="77.77" height="1.25" fill="#b3b8c0"/><rect x="24" y="164.34" width="77.77" height="1.25" fill="#b2b8c0"/></g><rect x="25" y="153.97" width="75.77" height="11.02" rx="5.51" fill="none" stroke="rgba(52,58,78,0.34)" stroke-width="2.2" stroke-linejoin="round"/><g clip-path="url(#c6)"><rect x="355.23" y="153.97" width="75.77" height="11.02" rx="5.51" fill="#c7cdd6"/><rect x="354.23" y="153.97" width="77.77" height="1.25" fill="#b6bcc4"/><rect x="354.23" y="154.62" width="77.77" height="1.25" fill="#b6bcc4"/><rect x="354.23" y="155.27" width="77.77" height="1.25" fill="#b6bbc4"/><rect x="354.23" y="155.91" width="77.77" height="1.25" fill="#b6bbc3"/><rect x="354.23" y="156.56" width="77.77" height="1.25" fill="#b5bbc3"/><rect x="354.23" y="157.21" width="77.77" height="1.25" fill="#b5bbc3"/><rect x="354.23" y="157.86" width="77.77" height="1.25" fill="#b5bac3"/><rect x="354.23" y="158.51" width="77.77" height="1.25" fill="#b5bac2"/><rect x="354.23" y="159.16" width="77.77" height="1.25" fill="#b4bac2"/><rect x="354.23" y="159.8" width="77.77" height="1.25" fill="#b4bac2"/><rect x="354.23" y="160.45" width="77.77" height="1.25" fill="#b4b9c1"/><rect x="354.23" y="161.1" width="77.77" height="1.25" fill="#b4b9c1"/><rect x="354.23" y="161.75" width="77.77" height="1.25" fill="#b3b9c1"/><rect x="354.23" y="162.4" width="77.77" height="1.25" fill="#b3b8c1"/><rect x="354.23" y="163.05" width="77.77" height="1.25" fill="#b3b8c0"/><rect x="354.23" y="163.69" width="77.77" height="1.25" fill="#b3b8c0"/><rect x="354.23" y="164.34" width="77.77" height="1.25" fill="#b2b8c0"/></g><rect x="355.23" y="153.97" width="75.77" height="11.02" rx="5.51" fill="none" stroke="rgba(52,58,78,0.34)" stroke-width="2.2" stroke-linejoin="round"/><g clip-path="url(#c7)"><polygon points="353.95,27 357.48,27.2 360.96,27.79 364.35,28.77 367.61,30.12 370.7,31.83 373.58,33.87 376.22,36.22 378.57,38.86 380.61,41.74 382.32,44.83 383.67,48.09 384.65,51.48 385.24,54.96 385.44,58.49 385.44,276.54 384.85,287.11 383.07,297.56 380.14,307.74 376.09,317.52 370.96,326.79 364.83,335.43 357.77,343.33 349.87,350.39 341.23,356.52 331.96,361.65 322.18,365.7 312,368.63 301.55,370.41 290.98,371 165.02,371 154.45,370.41 144,368.63 133.82,365.7 124.04,361.65 114.77,356.52 106.13,350.39 98.23,343.33 91.17,335.43 85.04,326.79 79.91,317.52 75.86,307.74 72.93,297.56 71.15,287.11 70.56,276.54 70.56,58.49 70.76,54.96 71.35,51.48 72.33,48.09 73.68,44.83 75.39,41.74 77.43,38.86 79.78,36.22 82.42,33.87 85.3,31.83 88.39,30.12 91.65,28.77 95.04,27.79 98.52,27.2 102.05,27" fill="#c7cdd6"/><rect x="69.56" y="27" width="316.88" height="20.84" fill="#c7cdd6"/><rect x="69.56" y="47.24" width="316.88" height="20.84" fill="#c7cdd6"/><rect x="69.56" y="67.47" width="316.88" height="20.84" fill="#c7cdd6"/><rect x="69.56" y="87.71" width="316.88" height="20.84" fill="#c7cdd6"/><rect x="69.56" y="107.94" width="316.88" height="20.84" fill="#c5cbd4"/><rect x="69.56" y="128.18" width="316.88" height="20.84" fill="#bdc3cb"/><rect x="69.56" y="148.41" width="316.88" height="20.84" fill="#b5bac2"/><rect x="69.56" y="168.65" width="316.88" height="20.84" fill="#adb2ba"/><rect x="69.56" y="188.88" width="316.88" height="20.84" fill="#a5a9b1"/><rect x="69.56" y="209.12" width="316.88" height="20.84" fill="#9ca1a8"/><rect x="69.56" y="229.35" width="316.88" height="20.84" fill="#94999f"/><rect x="69.56" y="249.59" width="316.88" height="20.84" fill="#8c9097"/><rect x="69.56" y="269.82" width="316.88" height="20.84" fill="#84888e"/><rect x="69.56" y="290.06" width="316.88" height="20.84" fill="#7c8085"/><rect x="69.56" y="310.29" width="316.88" height="20.84" fill="#74777d"/><rect x="69.56" y="330.53" width="316.88" height="20.84" fill="#6c6f74"/><rect x="69.56" y="350.76" width="316.88" height="20.84" fill="#64676b"/></g><polygon points="353.95,27 357.48,27.2 360.96,27.79 364.35,28.77 367.61,30.12 370.7,31.83 373.58,33.87 376.22,36.22 378.57,38.86 380.61,41.74 382.32,44.83 383.67,48.09 384.65,51.48 385.24,54.96 385.44,58.49 385.44,276.54 384.85,287.11 383.07,297.56 380.14,307.74 376.09,317.52 370.96,326.79 364.83,335.43 357.77,343.33 349.87,350.39 341.23,356.52 331.96,361.65 322.18,365.7 312,368.63 301.55,370.41 290.98,371 165.02,371 154.45,370.41 144,368.63 133.82,365.7 124.04,361.65 114.77,356.52 106.13,350.39 98.23,343.33 91.17,335.43 85.04,326.79 79.91,317.52 75.86,307.74 72.93,297.56 71.15,287.11 70.56,276.54 70.56,58.49 70.76,54.96 71.35,51.48 72.33,48.09 73.68,44.83 75.39,41.74 77.43,38.86 79.78,36.22 82.42,33.87 85.3,31.83 88.39,30.12 91.65,28.77 95.04,27.79 98.52,27.2 102.05,27" fill="none" stroke="rgba(52,58,78,0.34)" stroke-width="2.2" stroke-linejoin="round"/><ellipse cx="228" cy="87.2" rx="77.52" ry="18.92" fill="#f5f2e4" opacity="0.01"/><ellipse cx="228" cy="87.2" rx="62.02" ry="15.14" fill="#f5f2e4" opacity="0.05"/><ellipse cx="228" cy="87.2" rx="46.51" ry="11.35" fill="#f5f2e4" opacity="0.09"/><g clip-path="url(#c8)"><circle cx="154.2" cy="159.48" r="50.18" fill="#f4e5c5"/></g><circle cx="154.2" cy="159.48" r="50.18" fill="none" stroke="rgba(90,72,44,0.45)" stroke-width="2.6" stroke-linejoin="round"/><g clip-path="url(#c9)"><circle cx="301.8" cy="159.48" r="50.18" fill="#f4e5c5"/></g><circle cx="301.8" cy="159.48" r="50.18" fill="none" stroke="rgba(90,72,44,0.45)" stroke-width="2.6" stroke-linejoin="round"/><g clip-path="url(#c10)"><circle cx="154.2" cy="162.49" r="15.06" fill="#4e3c27"/></g><circle cx="154.2" cy="162.49" r="15.06" fill="none" stroke="rgba(255,255,255,0.10)" stroke-width="1.4" stroke-linejoin="round"/><g clip-path="url(#c11)"><circle cx="301.8" cy="162.49" r="15.06" fill="#4e3c27"/></g><circle cx="301.8" cy="162.49" r="15.06" fill="none" stroke="rgba(255,255,255,0.10)" stroke-width="1.4" stroke-linejoin="round"/><g clip-path="url(#c12)"><rect x="162.4" y="228.6" width="131.2" height="31.68" rx="12.96" fill="#4e3c27"/></g><rect x="162.4" y="228.6" width="131.2" height="31.68" rx="12.96" fill="none" stroke="rgba(255,255,255,0.10)" stroke-width="1.4" stroke-linejoin="round"/></svg>