<svg xmlns="http://www.w3.org/2000/svg" width="288" height="264" viewBox="0 0 288 264"><defs><clipPath id="c0"><rect x="24" y="8" width="240" height="212" rx="67.2" /></clipPath><clipPath id="c1"><rect x="57.6" y="95.2" width="172.8" height="78" rx="24" /></clipPath><clipPath id="c2"><rect x="63.6" y="101.2" width="160.8" height="66" rx="19.2" /></clipPath><clipPath id="c3"><circle cx="66" cy="103.6" r="4.85" /></clipPath><clipPath id="c4"><circle cx="222" cy="103.6" r="4.85" /></clipPath><clipPath id="c5"><circle cx="66" cy="164.8" r="4.85" /></clipPath><clipPath id="c6"><circle cx="222" cy="164.8" r="4.85" /></clipPath><clipPath id="c7"><circle cx="66" cy="134.2" r="4.85" /></clipPath><clipPath id="c8"><circle cx="222" cy="134.2" r="4.85" /></clipPath><clipPath id="c9"><circle cx="201.6" cy="154.86" r="12.31" /></clipPath><clipPath id="c10"><circle cx="96" cy="121.72" r="22" /></clipPath><clipPath id="c11"><circle cx="201.6" cy="154.86" r="8.4" /></clipPath><clipPath id="c12"><rect x="197.55" y="126.62" width="8.11" height="28.96" rx="4.05" /></clipPath><clipPath id="c13"><circle cx="189.29" cy="121.56" r="10.43" /></clipPath><clipPath id="c14"><circle cx="213.91" cy="121.56" r="10.43" /></clipPath></defs><g clip-path="url(#c0)"><rect x="24" y="8" width="240" height="212" rx="67.2" fill="#c7cdd6"/><rect x="23" y="8" width="242" height="19.87" fill="#606267"/><rect x="23" y="27.27" width="242" height="19.87" fill="#606267"/><rect x="23" y="46.55" width="242" height="19.87" fill="#606267"/><rect x="23" y="65.82" width="242" height="19.87" fill="#626569"/><rect x="23" y="85.09" width="242" height="19.87" fill="#65686d"/><rect x="23" y="104.36" width="242" height="19.87" fill="#696c71"/><rect x="23" y="123.64" width="242" height="19.87" fill="#6c6f74"/><rect x="23" y="142.91" width="242" height="19.87" fill="#707378"/><rect x="23" y="162.18" width="242" height="19.87" fill="#73767c"/><rect x="23" y="181.45" width="242" height="19.87" fill="#767a7f"/><rect x="23" y="200.73" width="242" height="19.87" fill="#7a7d83"/></g><rect x="24" y="8" width="240" height="212" rx="67.2" fill="none" stroke="rgba(52,58,78,0.34)" stroke-width="2.2" stroke-linejoin="round"/><g clip-path="url(#c1)"><rect x="57.6" y="95.2" width="172.8" height="78" rx="24" fill="#c7cdd6"/><rect x="56.6" y="95.2" width="174.8" height="7.69" fill="#66696e"/><rect x="56.6" y="102.29" width="174.8" height="7.69" fill="#676a6f"/><rect x="56.6" y="109.38" width="174.8" height="7.69" fill="#696c71"/><rect x="56.6" y="116.47" width="174.8" height="7.69" fill="#6a6d72"/><rect x="56.6" y="123.56" width="174.8" height="7.69" fill="#6b6e73"/><rect x="56.6" y="130.65" width="174.8" height="7.69" fill="#6c7075"/><rect x="56.6" y="137.75" width="174.8" height="7.69" fill="#6e7176"/><rect x="56.6" y="144.84" width="174.8" height="7.69" fill="#6f7277"/><rect x="56.6" y="151.93" width="174.8" height="7.69" fill="#707379"/><rect x="56.6" y="159.02" width="174.8" height="7.69" fill="#71757a"/><rect x="56.6" y="166.11" width="174.8" height="7.69" fill="#73767b"/></g><rect x="57.6" y="95.2" width="172.8" height="78" rx="24" fill="none" stroke="rgba(52,58,78,0.34)" stroke-width="2.2" stroke-linejoin="round"/><g clip-path="url(#c2)"><rect x="63.6" y="101.2" width="160.8" height="66" rx="19.2" fill="#c7cdd6"/><rect x="62.6" y="101.2" width="162.8" height="6.6" fill="#676a6f"/><rect x="62.6" y="107.2" width="162.8" height="6.6" fill="#686b70"/><rect x="62.6" y="113.2" width="162.8" height="6.6" fill="#696c71"/><rect x="62.6" y="119.2" width="162.8" height="6.6" fill="#6a6d72"/><rect x="62.6" y="125.2" width="162.8" height="6.6" fill="#6b6f73"/><rect x="62.6" y="131.2" width="162.8" height="6.6" fill="#6c7075"/><rect x="62.6" y="137.2" width="162.8" height="6.6" fill="#6d7176"/><rect x="62.6" y="143.2" width="162.8" height="6.6" fill="#6e7277"/><rect x="62.6" y="149.2" width="162.8" height="6.6" fill="#707378"/><rect x="62.6" y="155.2" width="162.8" height="6.6" fill="#717479"/><rect x="62.6" y="161.2" width="162.8" height="6.6" fill="#72757a"/></g><rect x="63.6" y="101.2" width="160.8" height="66" rx="19.2" fill="none" stroke="rgba(52,58,78,0.34)" stroke-width="2.2" stroke-linejoin="round"/><g clip-path="url(#c3)"><circle cx="66" cy="103.6" r="4.85" fill="#c7cdd6"/><rect x="60.15" y="98.75" width="11.71" height="1.48" fill="#66696e"/><rect x="60.15" y="99.63" width="11.71" height="1.48" fill="#66696e"/><rect x="60.15" y="100.51" width="11.71" height="1.48" fill="#676a6e"/><rect x="60.15" y="101.39" width="11.71" height="1.48" fill="#676a6e"/><rect x="60.15" y="102.28" width="11.71" height="1.48" fill="#676a6f"/><rect x="60.15" y="103.16" width="11.71" height="1.48" fill="#676a6f"/><rect x="60.15" y="104.04" width="11.71" height="1.48" fill="#676a6f"/><rect x="60.15" y="104.92" width="11.71" height="1.48" fill="#676a6f"/><rect x="60.15" y="105.81" width="11.71" height="1.48" fill="#676b6f"/><rect x="60.15" y="106.69" width="11.71" height="1.48" fill="#686b6f"/><rect x="60.15" y="107.57" width="11.71" height="1.48" fill="#686b70"/></g><circle cx="66" cy="103.6" r="4.85" fill="none" stroke="rgba(52,58,78,0.34)" stroke-width="2.2" stroke-linejoin="round"/><g clip-path="url(#c4)"><circle cx="222" cy="103.6" r="4.85" fill="#c7cdd6"/><rect x="216.15" y="98.75" width="11.71" height="1.48" fill="#66696e"/><rect x="216.15" y="99.63" width="11.71" height="1.48" fill="#66696e"/><rect x="216.15" y="100.51" width="11.71" height="1.48" fill="#676a6e"/><rect x="216.15" y="101.39" width="11.71" height="1.48" fill="#676a6e"/><rect x="216.15" y="102.28" width="11.71" height="1.48" fill="#676a6f"/><rect x="216.15" y="103.16" width="11.71" height="1.48" fill="#676a6f"/><rect x="216.15" y="104.04" width="11.71" height="1.48" fill="#676a6f"/><rect x="216.15" y="104.92" width="11.71" height="1.48" fill="#676a6f"/><rect x="216.15" y="105.81" width="11.71" height="1.48" fill="#676b6f"/><rect x="216.15" y="106.69" width="11.71" height="1.48" fill="#686b6f"/><rect x="216.15" y="107.57" width="11.71" height="1.48" fill="#686b70"/></g><circle cx="222" cy="103.6" r="4.85" fill="none" stroke="rgba(52,58,78,0.34)" stroke-width="2.2" stroke-linejoin="round"/><g clip-path="url(#c5)"><circle cx="66" cy="164.8" r="4.85" fill="#c7cdd6"/><rect x="60.15" y="159.95" width="11.71" height="1.48" fill="#717479"/><rect x="60.15" y="160.83" width="11.71" height="1.48" fill="#71747a"/><rect x="60.15" y="161.71" width="11.71" height="1.48" fill="#71757a"/><rect x="60.15" y="162.59" width="11.71" height="1.48" fill="#71757a"/><rect x="60.15" y="163.48" width="11.71" height="1.48" fill="#72757a"/><rect x="60.15" y="164.36" width="11.71" height="1.48" fill="#72757a"/><rect x="60.15" y="165.24" width="11.71" height="1.48" fill="#72757a"/><rect x="60.15" y="166.12" width="11.71" height="1.48" fill="#72757b"/><rect x="60.15" y="167.01" width="11.71" height="1.48" fill="#72767b"/><rect x="60.15" y="167.89" width="11.71" height="1.48" fill="#72767b"/><rect x="60.15" y="168.77" width="11.71" height="1.48" fill="#72767b"/></g><circle cx="66" cy="164.8" r="4.85" fill="none" stroke="rgba(52,58,78,0.34)" stroke-width="2.2" stroke-linejoin="round"/><g clip-path="url(#c6)"><circle cx="222" cy="164.8" r="4.85" fill="#c7cdd6"/><rect x="216.15" y="159.95" width="11.71" height="1.48" fill="#717479"/><rect x="216.15" y="160.83" width="11.71" height="1.48" fill="#71747a"/><rect x="216.15" y="161.71" width="11.71" height="1.48" fill="#71757a"/><rect x="216.15" y="162.59" width="11.71" height="1.48" fill="#71757a"/><rect x="216.15" y="163.48" width="11.71" height="1.48" fill="#72757a"/><rect x="216.15" y="164.36" width="11.71" height="1.48" fill="#72757a"/><rect x="216.15" y="165.24" width="11.71" height="1.48" fill="#72757a"/><rect x="216.15" y="166.12" width="11.71" height="1.48" fill="#72757b"/><rect x="216.15" y="167.01" width="11.71" height="1.48" fill="#72767b"/><rect x="216.15" y="167.89" width="11.71" height="1.48" fill="#72767b"/><rect x="216.15" y="168.77" width="11.71" height="1.48" fill="#72767b"/></g><circle cx="222" cy="164.8" r="4.85" fill="none" stroke="rgba(52,58,78,0.34)" stroke-width="2.2" stroke-linejoin="round"/><g clip-path="url(#c7)"><circle cx="66" cy="134.2" r="4.85" fill="#c7cdd6"/><rect x="60.15" y="129.35" width="11.71" height="1.48" fill="#6c6f74"/><rect x="60.15" y="130.23" width="11.71" height="1.48" fill="#6c6f74"/><rect x="60.15" y="131.11" width="11.71" height="1.48" fill="#6c6f74"/><rect x="60.15" y="131.99" width="11.71" height="1.48" fill="#6c6f74"/><rect x="60.15" y="132.88" width="11.71" height="1.48" fill="#6c6f74"/><rect x="60.15" y="133.76" width="11.71" height="1.48" fill="#6c7075"/><rect x="60.15" y="134.64" width="11.71" height="1.48" fill="#6d7075"/><rect x="60.15" y="135.52" width="11.71" height="1.48" fill="#6d7075"/><rect x="60.15" y="136.41" width="11.71" height="1.48" fill="#6d7075"/><rect x="60.15" y="137.29" width="11.71" height="1.48" fill="#6d7075"/><rect x="60.15" y="138.17" width="11.71" height="1.48" fill="#6d7075"/></g><circle cx="66" cy="134.2" r="4.85" fill="none" stroke="rgba(52,58,78,0.34)" stroke-width="2.2" stroke-linejoin="round"/><g clip-path="url(#c8)"><circle cx="222" cy="134.2" r="4.85" fill="#c7cdd6"/><rect x="216.15" y="129.35" width="11.71" height="1.48" fill="#6c6f74"/><rect x="216.15" y="130.23" width="11.71" height="1.48" fill="#6c6f74"/><rect x="216.15" y="131.11" width="11.71" height="1.48" fill="#6c6f74"/><rect x="216.15" y="131.99" width="11.71" height="1.48" fill="#6c6f74"/><rect x="216.15" y="132.88" width="11.71" height="1.48" fill="#6c6f74"/><rect x="216.15" y="133.76" width="11.71" height="1.48" fill="#6c7075"/><rect x="216.15" y="134.64" width="11.71" height="1.48" fill="#6d7075"/><rect x="216.15" y="135.52" width="11.71" height="1.48" fill="#6d7075"/><rect x="216.15" y="136.41" width="11.71" height="1.48" fill="#6d7075"/><rect x="216.15" y="137.29" width="11.71" height="1.48" fill="#6d7075"/><rect x="216.15" y="138.17" width="11.71" height="1.48" fill="#6d7075"/></g><circle cx="222" cy="134.2" r="4.85" fill="none" stroke="rgba(52,58,78,0.34)" stroke-width="2.2" stroke-linejoin="round"/><g clip-path="url(#c9)"><circle cx="201.6" cy="154.86" r="12.31" fill="#c7cdd6"/><rect x="188.29" y="142.55" width="26.62" height="2.84" fill="#6e7176"/><rect x="188.29" y="144.79" width="26.62" height="2.84" fill="#6e7277"/><rect x="188.29" y="147.03" width="26.62" height="2.84" fill="#6f7277"/><rect x="188.29" y="149.27" width="26.62" height="2.84" fill="#6f7378"/><rect x="188.29" y="151.5" width="26.62" height="2.84" fill="#707378"/><rect x="188.29" y="153.74" width="26.62" height="2.84" fill="#707378"/><rect x="188.29" y="155.98" width="26.62" height="2.84" fill="#707479"/><rect x="188.29" y="158.22" width="26.62" height="2.84" fill="#717479"/><rect x="188.29" y="160.45" width="26.62" height="2.84" fill="#71757a"/><rect x="188.29" y="162.69" width="26.62" height="2.84" fill="#72757a"/><rect x="188.29" y="164.93" width="26.62" height="2.84" fill="#72757b"/></g><circle cx="201.6" cy="154.86" r="12.31" fill="none" stroke="rgba(52,58,78,0.34)" stroke-width="2.2" stroke-linejoin="round"/><ellipse cx="144" cy="45.1" rx="48.96" ry="11.66" fill="#f5f2e4" opacity="0.01"/><ellipse cx="144" cy="45.1" rx="39.17" ry="9.33" fill="#f5f2e4" opacity="0.05"/><ellipse cx="144" cy="45.1" rx="29.38" ry="7" fill="#f5f2e4" opacity="0.09"/><g clip-path="url(#c10)"><circle cx="96" cy="121.72" r="22" fill="#f4e5c5"/></g><circle cx="96" cy="121.72" r="22" fill="none" stroke="rgba(90,72,44,0.45)" stroke-width="2.6" stroke-linejoin="round"/><g clip-path="url(#c11)"><circle cx="201.6" cy="154.86" r="8.4" fill="#4e3c27"/></g><circle cx="201.6" cy="154.86" r="8.4" fill="none" stroke="rgba(255,255,255,0.10)" stroke-width="1.4" stroke-linejoin="round"/><g clip-path="url(#c12)"><rect x="197.55" y="126.62" width="8.11" height="28.96" rx="4.05" fill="#d9a441"/><rect x="196.55" y="126.62" width="10.11" height="3.23" fill="#755823"/><rect x="196.55" y="129.26" width="10.11" height="3.23" fill="#755923"/><rect x="196.55" y="131.89" width="10.11" height="3.23" fill="#765923"/><rect x="196.55" y="134.52" width="10.11" height="3.23" fill="#765a23"/><rect x="196.55" y="137.15" width="10.11" height="3.23" fill="#775a24"/><rect x="196.55" y="139.79" width="10.11" height="3.23" fill="#775a24"/><rect x="196.55" y="142.42" width="10.11" height="3.23" fill="#785b24"/><rect x="196.55" y="145.05" width="10.11" height="3.23" fill="#785b24"/><rect x="196.55" y="147.69" width="10.11" height="3.23" fill="#795b24"/><rect x="196.55" y="150.32" width="10.11" height="3.23" fill="#795c24"/><rect x="196.55" y="152.95" width="10.11" height="3.23" fill="#7a5c25"/></g><rect x="197.55" y="126.62" width="8.11" height="28.96" rx="4.05" fill="none" stroke="rgba(90,60,20,0.55)" stroke-width="1.8" stroke-linejoin="round"/><g clip-path="url(#c13)"><circle cx="189.29" cy="121.56" r="10.43" fill="#d9a441"/><rect x="177.87" y="111.13" width="22.85" height="2.5" fill="#725622"/><rect x="177.87" y="113.03" width="22.85" height="2.5" fill="#725622"/><rect x="177.87" y="114.92" width="22.85" height="2.5" fill="#735722"/><rect x="177.87" y="116.82" width="22.85" height="2.5" fill="#735722"/><rect x="177.87" y="118.71" width="22.85" height="2.5" fill="#735723"/><rect x="177.87" y="120.61" width="22.85" height="2.5" fill="#745723"/><rect x="177.87" y="122.5" width="22.85" height="2.5" fill="#745823"/><rect x="177.87" y="124.4" width="22.85" height="2.5" fill="#745823"/><rect x="177.87" y="126.29" width="22.85" height="2.5" fill="#755823"/><rect x="177.87" y="128.19" width="22.85" height="2.5" fill="#755923"/><rect x="177.87" y="130.09" width="22.85" height="2.5" fill="#765923"/></g><circle cx="189.29" cy="121.56" r="10.43" fill="none" stroke="rgba(90,60,20,0.55)" stroke-width="1.8" stroke-linejoin="round"/><g clip-path="url(#c14)"><circle cx="213.91" cy="121.56" r="10.43" fill="#d9a441"/><rect x="202.48" y="111.13" width="22.85" height="2.5" fill="#725622"/><rect x="202.48" y="113.03" width="22.85" height="2.5" fill="#725622"/><rect x="202.48" y="114.92" width="22.85" height="2.5" fill="#735722"/><rect x="202.48" y="116.82" width="22.85" height="2.5" fill="#735722"/><rect x="202.48" y="118.71" width="22.85" height="2.5" fill="#735723"/><rect x="202.48" y="120.61" width="22.85" height="2.5" fill="#745723"/><rect x="202.48" y="122.5" width="22.85" height="2.5" fill="#745823"/><rect x="202.48" y="124.4" width="22.85" height="2.5" fill="#745823"/><rect x="202.48" y="126.29" width="22.85" height="2.5" fill="#755823"/><rect x="202.48" y="128.19" width="22.85" height="2.5" fill="#755923"/><rect x="202.48" y="130.09" width="22.85" height="2.5" fill="#765923"/></g><circle cx="213.91" cy="121.56" r="10.43" fill="none" stroke="rgba(90,60,20,0.55)" stroke-width="1.8" stroke-linejoin="round"/></svg>