<svg xmlns="http://www.w3.org/2000/svg" width="192" height="280" viewBox="0 0 192 280"><defs><clipPath id="c0"><circle cx="70" cy="63" r="36.72" /></clipPath><clipPath id="c1"><rect x="39.4" y="63" width="61.2" height="57.12" rx="9.18" /></clipPath><clipPath id="c2"><circle cx="70" cy="63" r="36.72" /></clipPath><clipPath id="c3"><circle cx="70" cy="63" r="36.72" /></clipPath><clipPath id="c4"><circle cx="70" cy="63" r="36.72" /></clipPath><clipPath id="c5"><circle cx="70" cy="63" r="36.72" /></clipPath><clipPath id="c6"><circle cx="70" cy="63" r="36.72" /></clipPath><clipPath id="c7"><circle cx="70" cy="63" r="36.72" /></clipPath><clipPath id="c8"><circle cx="70" cy="63" r="36.72" /></clipPath><clipPath id="c9"><circle cx="70" cy="63" r="36.72" /></clipPath><clipPath id="c10"><circle cx="70" cy="63" r="36.72" /></clipPath><clipPath id="c11"><rect x="39.4" y="63" width="61.2" height="57.12" rx="9.18" /></clipPath><clipPath id="c12"><rect x="39.4" y="63" width="61.2" height="57.12" rx="9.18" /></clipPath><clipPath id="c13"><rect x="39.4" y="63" width="61.2" height="57.12" rx="9.18" /></clipPath><clipPath id="c14"><rect x="39.4" y="63" width="61.2" height="57.12" rx="9.18" /></clipPath><clipPath id="c15"><rect x="39.4" y="63" width="61.2" height="57.12" rx="9.18" /></clipPath><clipPath id="c16"><rect x="39.4" y="63" width="61.2" height="57.12" rx="9.18" /></clipPath><clipPath id="c17"><rect x="39.4" y="63" width="61.2" height="57.12" rx="9.18" /></clipPath><clipPath id="c18"><rect x="39.4" y="63" width="61.2" height="57.12" rx="9.18" /></clipPath><clipPath id="c19"><rect x="39.4" y="63" width="61.2" height="57.12" rx="9.18" /></clipPath><clipPath id="c20"><rect x="36.34" y="78.15" width="67.32" height="13.76" rx="4.13" /></clipPath><clipPath id="c21"><circle cx="86.54" cy="120.12" r="36.12" /></clipPath><clipPath id="c22"><circle cx="86.54" cy="120.12" r="12.28" /></clipPath><clipPath id="c24"><polygon points="27.92,142.2 145.15,142.2 145.15,160.26 145.09,161.27 144.89,162.26 144.56,163.22 144.12,164.13 143.55,164.97 142.89,165.73 142.12,166.4 141.28,166.96 140.37,167.41 139.42,167.74 138.42,167.93 137.41,168 35.66,168 34.65,167.93 33.65,167.74 32.7,167.41 31.79,166.96 30.95,166.4 30.19,165.73 29.52,164.97 28.96,164.13 28.51,163.22 28.18,162.26 27.98,161.27 27.92,160.26" /></clipPath></defs><g clip-path="url(#c0)"><circle cx="70" cy="63" r="36.72" fill="#c7cdd6"/><rect x="32.28" y="26.28" width="75.44" height="11.09" fill="#b3b9c1"/><rect x="32.28" y="36.77" width="75.44" height="11.09" fill="#b3b9c1"/><rect x="32.28" y="47.26" width="75.44" height="11.09" fill="#b3b9c1"/><rect x="32.28" y="57.75" width="75.44" height="11.09" fill="#b2b8c0"/><rect x="32.28" y="68.25" width="75.44" height="11.09" fill="#abb1b8"/><rect x="32.28" y="78.74" width="75.44" height="11.09" fill="#a5a9b1"/><rect x="32.28" y="89.23" width="75.44" height="11.09" fill="#9ea2aa"/></g><circle cx="70" cy="63" r="36.72" fill="none" stroke="rgba(52,58,78,0.34)" stroke-width="2.2" stroke-linejoin="round"/><g clip-path="url(#c1)"><rect x="39.4" y="63" width="61.2" height="57.12" rx="9.18" fill="#c7cdd6"/><rect x="38.4" y="63" width="63.2" height="8.76" fill="#b0b5bd"/><rect x="38.4" y="71.16" width="63.2" height="8.76" fill="#aaafb7"/><rect x="38.4" y="79.32" width="63.2" height="8.76" fill="#a5aab1"/><rect x="38.4" y="87.48" width="63.2" height="8.76" fill="#a0a4ac"/><rect x="38.4" y="95.64" width="63.2" height="8.76" fill="#9a9fa6"/><rect x="38.4" y="103.8" width="63.2" height="8.76" fill="#9599a0"/><rect x="38.4" y="111.96" width="63.2" height="8.76" fill="#8f949a"/></g><rect x="39.4" y="63" width="61.2" height="57.12" rx="9.18" fill="none" stroke="rgba(52,58,78,0.34)" stroke-width="2.2" stroke-linejoin="round"/><g clip-path="url(#c2)"><rect x="-32" y="26.28" width="204" height="13.35" rx="0" fill="#b2b7bf"/></g><g clip-path="url(#c3)"><rect x="-32" y="39.03" width="204" height="13.35" rx="0" fill="#a0a5ac"/></g><g clip-path="url(#c4)"><rect x="-32" y="51.78" width="204" height="13.35" rx="0" fill="#90959b"/></g><g clip-path="url(#c5)"><rect x="-32" y="64.53" width="204" height="13.35" rx="0" fill="#84888e"/></g><g clip-path="url(#c6)"><rect x="-32" y="77.28" width="204" height="13.35" rx="0" fill="#7a7e83"/></g><g clip-path="url(#c7)"><rect x="-32" y="90.03" width="204" height="13.35" rx="0" fill="#73777c"/></g><g clip-path="url(#c8)"><rect x="-32" y="102.78" width="204" height="13.35" rx="0" fill="#6f7277"/></g><g clip-path="url(#c9)"><rect x="-32" y="115.53" width="204" height="13.35" rx="0" fill="#6d7176"/></g><g clip-path="url(#c10)"><rect x="-32" y="128.28" width="204" height="12.6" rx="0" fill="#b3b9c1"/></g><g clip-path="url(#c11)"><rect x="-32" y="26.28" width="204" height="13.35" rx="0" fill="#b2b7bf"/></g><g clip-path="url(#c12)"><rect x="-32" y="39.03" width="204" height="13.35" rx="0" fill="#a0a5ac"/></g><g clip-path="url(#c13)"><rect x="-32" y="51.78" width="204" height="13.35" rx="0" fill="#90959b"/></g><g clip-path="url(#c14)"><rect x="-32" y="64.53" width="204" height="13.35" rx="0" fill="#84888e"/></g><g clip-path="url(#c15)"><rect x="-32" y="77.28" width="204" height="13.35" rx="0" fill="#7a7e83"/></g><g clip-path="url(#c16)"><rect x="-32" y="90.03" width="204" height="13.35" rx="0" fill="#73777c"/></g><g clip-path="url(#c17)"><rect x="-32" y="102.78" width="204" height="13.35" rx="0" fill="#6f7277"/></g><g clip-path="url(#c18)"><rect x="-32" y="115.53" width="204" height="13.35" rx="0" fill="#6d7176"/></g><g clip-path="url(#c19)"><rect x="-32" y="128.28" width="204" height="12.6" rx="0" fill="#b3b9c1"/></g><g clip-path="url(#c20)"><rect x="36.34" y="78.15" width="67.32" height="13.76" rx="4.13" fill="#c7cdd6"/><rect x="35.34" y="78.15" width="69.32" height="2.57" fill="#a8adb4"/><rect x="35.34" y="80.11" width="69.32" height="2.57" fill="#a6abb3"/><rect x="35.34" y="82.08" width="69.32" height="2.57" fill="#a5aab2"/><rect x="35.34" y="84.04" width="69.32" height="2.57" fill="#a4a9b0"/><rect x="35.34" y="86.01" width="69.32" height="2.57" fill="#a3a7af"/><rect x="35.34" y="87.98" width="69.32" height="2.57" fill="#a1a6ad"/><rect x="35.34" y="89.94" width="69.32" height="2.57" fill="#a0a5ac"/></g><rect x="36.34" y="78.15" width="67.32" height="13.76" rx="4.13" fill="none" stroke="rgba(52,58,78,0.34)" stroke-width="2.2" stroke-linejoin="round"/><g clip-path="url(#c21)"><circle cx="86.54" cy="120.12" r="36.12" fill="#c7cdd6"/><rect x="49.42" y="84" width="74.24" height="10.92" fill="#a1a6ad"/><rect x="49.42" y="94.32" width="74.24" height="10.92" fill="#9a9fa6"/><rect x="49.42" y="104.64" width="74.24" height="10.92" fill="#94989f"/><rect x="49.42" y="114.96" width="74.24" height="10.92" fill="#8d9197"/><rect x="49.42" y="125.28" width="74.24" height="10.92" fill="#868a90"/><rect x="49.42" y="135.6" width="74.24" height="10.92" fill="#7f8389"/><rect x="49.42" y="145.92" width="74.24" height="10.92" fill="#797c82"/></g><circle cx="86.54" cy="120.12" r="36.12" fill="none" stroke="rgba(52,58,78,0.34)" stroke-width="2.2" stroke-linejoin="round"/><g clip-path="url(#c22)"><circle cx="86.54" cy="120.12" r="12.28" fill="#c7cdd6"/><rect x="73.25" y="107.84" width="26.56" height="4.11" fill="#94989f"/><rect x="73.25" y="111.35" width="26.56" height="4.11" fill="#91969c"/><rect x="73.25" y="114.86" width="26.56" height="4.11" fill="#8f939a"/><rect x="73.25" y="118.37" width="26.56" height="4.11" fill="#8d9197"/><rect x="73.25" y="121.87" width="26.56" height="4.11" fill="#8b8f95"/><rect x="73.25" y="125.38" width="26.56" height="4.11" fill="#888c92"/><rect x="73.25" y="128.89" width="26.56" height="4.11" fill="#868a90"/></g><circle cx="86.54" cy="120.12" r="12.28" fill="none" stroke="rgba(52,58,78,0.34)" stroke-width="2.2" stroke-linejoin="round"/><circle cx="86.54" cy="120.12" r="9.68" fill="#9fa4ab"/><ellipse cx="70" cy="51.08" rx="32.64" ry="7.79" fill="#f5f2e4" opacity="0.01"/><ellipse cx="70" cy="51.08" rx="26.11" ry="6.24" fill="#f5f2e4" opacity="0.05"/><ellipse cx="70" cy="51.08" rx="19.58" ry="4.68" fill="#f5f2e4" opacity="0.09"/><g clip-path="url(#c24)"><polygon points="27.92,142.2 145.15,142.2 145.15,160.26 145.09,161.27 144.89,162.26 144.56,163.22 144.12,164.13 143.55,164.97 142.89,165.73 142.12,166.4 141.28,166.96 140.37,167.41 139.42,167.74 138.42,167.93 137.41,168 35.66,168 34.65,167.93 33.65,167.74 32.7,167.41 31.79,166.96 30.95,166.4 30.19,165.73 29.52,164.97 28.96,164.13 28.51,163.22 28.18,162.26 27.98,161.27 27.92,160.26" fill="#b46d52"/><rect x="26.92" y="142.2" width="119.23" height="4.29" fill="#714534"/><rect x="26.92" y="145.89" width="119.23" height="4.29" fill="#6f4333"/><rect x="26.92" y="149.57" width="119.23" height="4.29" fill="#6d4232"/><rect x="26.92" y="153.26" width="119.23" height="4.29" fill="#6b4131"/><rect x="26.92" y="156.94" width="119.23" height="4.29" fill="#683f30"/><rect x="26.92" y="160.63" width="119.23" height="4.29" fill="#663e2f"/><rect x="26.92" y="164.31" width="119.23" height="4.29" fill="#643d2e"/></g><polygon points="27.92,142.2 145.15,142.2 145.15,160.26 145.09,161.27 144.89,162.26 144.56,163.22 144.12,164.13 143.55,164.97 142.89,165.73 142.12,166.4 141.28,166.96 140.37,167.41 139.42,167.74 138.42,167.93 137.41,168 35.66,168 34.65,167.93 33.65,167.74 32.7,167.41 31.79,166.96 30.95,166.4 30.19,165.73 29.52,164.97 28.96,164.13 28.51,163.22 28.18,162.26 27.98,161.27 27.92,160.26" fill="none" stroke="rgba(52,58,78,0.34)" stroke-width="2.2" stroke-linejoin="round"/></svg>