<svg xmlns="http://www.w3.org/2000/svg" width="288" height="264" viewBox="0 0 288 264"><defs><clipPath id="c0"><rect x="13" y="8" width="262" height="240" rx="14" /></clipPath><clipPath id="c1"><rect x="31" y="82" width="226" height="40" rx="8" /></clipPath><clipPath id="c2"><rect x="39" y="142" width="210" height="15" rx="6" /></clipPath><clipPath id="c3"><rect x="39" y="172" width="210" height="15" rx="6" /></clipPath><clipPath id="c4"><rect x="39" y="202" width="210" height="15" rx="6" /></clipPath><clipPath id="c5"><circle cx="201.6" cy="151.36" r="10.61" /></clipPath><clipPath id="c6"><circle cx="201.6" cy="151.36" r="7.24" /></clipPath><clipPath id="c7"><rect x="198.11" y="127.02" width="6.99" height="24.96" rx="3.49" /></clipPath><clipPath id="c8"><circle cx="190.99" cy="122.66" r="8.99" /></clipPath><clipPath id="c9"><circle cx="212.21" cy="122.66" r="8.99" /></clipPath></defs><g clip-path="url(#c0)"><rect x="13" y="8" width="262" height="240" rx="14" fill="#c7cdd6"/><rect x="12" y="8" width="264" height="20.6" fill="#606267"/><rect x="12" y="28" width="264" height="20.6" fill="#606267"/><rect x="12" y="48" width="264" height="20.6" fill="#606267"/><rect x="12" y="68" width="264" height="20.6" fill="#616468"/><rect x="12" y="88" width="264" height="20.6" fill="#64676c"/><rect x="12" y="108" width="264" height="20.6" fill="#676a6f"/><rect x="12" y="128" width="264" height="20.6" fill="#6a6e72"/><rect x="12" y="148" width="264" height="20.6" fill="#6d7176"/><rect x="12" y="168" width="264" height="20.6" fill="#717479"/><rect x="12" y="188" width="264" height="20.6" fill="#74777c"/><rect x="12" y="208" width="264" height="20.6" fill="#777a80"/><rect x="12" y="228" width="264" height="20.6" fill="#7a7e83"/></g><rect x="13" y="8" width="262" height="240" rx="14" fill="none" stroke="rgba(52,58,78,0.34)" stroke-width="2.2" stroke-linejoin="round"/><g clip-path="url(#c1)"><rect x="31" y="82" width="226" height="40" rx="8" fill="#c7cdd6"/><rect x="30" y="82" width="228" height="3.93" fill="#626569"/><rect x="30" y="85.33" width="228" height="3.93" fill="#62656a"/><rect x="30" y="88.67" width="228" height="3.93" fill="#63666a"/><rect x="30" y="92" width="228" height="3.93" fill="#63666b"/><rect x="30" y="95.33" width="228" height="3.93" fill="#64676c"/><rect x="30" y="98.67" width="228" height="3.93" fill="#65686c"/><rect x="30" y="102" width="228" height="3.93" fill="#65686d"/><rect x="30" y="105.33" width="228" height="3.93" fill="#66696d"/><rect x="30" y="108.67" width="228" height="3.93" fill="#66696e"/><rect x="30" y="112" width="228" height="3.93" fill="#676a6e"/><rect x="30" y="115.33" width="228" height="3.93" fill="#676a6f"/><rect x="30" y="118.67" width="228" height="3.93" fill="#686b6f"/></g><rect x="31" y="82" width="226" height="40" rx="8" fill="none" stroke="rgba(52,58,78,0.34)" stroke-width="2.2" stroke-linejoin="round"/><g clip-path="url(#c2)"><rect x="39" y="142" width="210" height="15" rx="6" fill="#c7cdd6"/><rect x="38" y="142" width="212" height="1.85" fill="#6b6e73"/><rect x="38" y="143.25" width="212" height="1.85" fill="#6b6e73"/><rect x="38" y="144.5" width="212" height="1.85" fill="#6b6f74"/><rect x="38" y="145.75" width="212" height="1.85" fill="#6c6f74"/><rect x="38" y="147" width="212" height="1.85" fill="#6c6f74"/><rect x="38" y="148.25" width="212" height="1.85" fill="#6c6f74"/><rect x="38" y="149.5" width="212" height="1.85" fill="#6c6f74"/><rect x="38" y="150.75" width="212" height="1.85" fill="#6c7075"/><rect x="38" y="152" width="212" height="1.85" fill="#6d7075"/><rect x="38" y="153.25" width="212" height="1.85" fill="#6d7075"/><rect x="38" y="154.5" width="212" height="1.85" fill="#6d7075"/><rect x="38" y="155.75" width="212" height="1.85" fill="#6d7075"/></g><rect x="39" y="142" width="210" height="15" rx="6" fill="none" stroke="rgba(52,58,78,0.34)" stroke-width="2.2" stroke-linejoin="round"/><g clip-path="url(#c3)"><rect x="39" y="172" width="210" height="15" rx="6" fill="#c7cdd6"/><rect x="38" y="172" width="212" height="1.85" fill="#707378"/><rect x="38" y="173.25" width="212" height="1.85" fill="#707378"/><rect x="38" y="174.5" width="212" height="1.85" fill="#707379"/><rect x="38" y="175.75" width="212" height="1.85" fill="#707479"/><rect x="38" y="177" width="212" height="1.85" fill="#707479"/><rect x="38" y="178.25" width="212" height="1.85" fill="#717479"/><rect x="38" y="179.5" width="212" height="1.85" fill="#717479"/><rect x="38" y="180.75" width="212" height="1.85" fill="#71747a"/><rect x="38" y="182" width="212" height="1.85" fill="#71757a"/><rect x="38" y="183.25" width="212" height="1.85" fill="#71757a"/><rect x="38" y="184.5" width="212" height="1.85" fill="#72757a"/><rect x="38" y="185.75" width="212" height="1.85" fill="#72757a"/></g><rect x="39" y="172" width="210" height="15" rx="6" fill="none" stroke="rgba(52,58,78,0.34)" stroke-width="2.2" stroke-linejoin="round"/><g clip-path="url(#c4)"><rect x="39" y="202" width="210" height="15" rx="6" fill="#c7cdd6"/><rect x="38" y="202" width="212" height="1.85" fill="#74787d"/><rect x="38" y="203.25" width="212" height="1.85" fill="#75787d"/><rect x="38" y="204.5" width="212" height="1.85" fill="#75787e"/><rect x="38" y="205.75" width="212" height="1.85" fill="#75787e"/><rect x="38" y="207" width="212" height="1.85" fill="#75797e"/><rect x="38" y="208.25" width="212" height="1.85" fill="#75797e"/><rect x="38" y="209.5" width="212" height="1.85" fill="#76797e"/><rect x="38" y="210.75" width="212" height="1.85" fill="#76797f"/><rect x="38" y="212" width="212" height="1.85" fill="#76797f"/><rect x="38" y="213.25" width="212" height="1.85" fill="#767a7f"/><rect x="38" y="214.5" width="212" height="1.85" fill="#767a7f"/><rect x="38" y="215.75" width="212" height="1.85" fill="#767a7f"/></g><rect x="39" y="202" width="210" height="15" rx="6" fill="none" stroke="rgba(52,58,78,0.34)" stroke-width="2.2" stroke-linejoin="round"/><g clip-path="url(#c5)"><circle cx="201.6" cy="151.36" r="10.61" fill="#c7cdd6"/><rect x="189.99" y="140.75" width="23.22" height="2.37" fill="#6b6e73"/><rect x="189.99" y="142.52" width="23.22" height="2.37" fill="#6b6e73"/><rect x="189.99" y="144.29" width="23.22" height="2.37" fill="#6b6f74"/><rect x="189.99" y="146.06" width="23.22" height="2.37" fill="#6c6f74"/><rect x="189.99" y="147.82" width="23.22" height="2.37" fill="#6c6f74"/><rect x="189.99" y="149.59" width="23.22" height="2.37" fill="#6c7074"/><rect x="189.99" y="151.36" width="23.22" height="2.37" fill="#6d7075"/><rect x="189.99" y="153.13" width="23.22" height="2.37" fill="#6d7075"/><rect x="189.99" y="154.9" width="23.22" height="2.37" fill="#6d7075"/><rect x="189.99" y="156.66" width="23.22" height="2.37" fill="#6d7176"/><rect x="189.99" y="158.43" width="23.22" height="2.37" fill="#6e7176"/><rect x="189.99" y="160.2" width="23.22" height="2.37" fill="#6e7176"/></g><circle cx="201.6" cy="151.36" r="10.61" fill="none" stroke="rgba(52,58,78,0.34)" stroke-width="2.2" stroke-linejoin="round"/><ellipse cx="144" cy="50" rx="48.96" ry="13.2" fill="#f5f2e4" opacity="0.01"/><ellipse cx="144" cy="50" rx="39.17" ry="10.56" fill="#f5f2e4" opacity="0.05"/><ellipse cx="144" cy="50" rx="29.38" ry="7.92" fill="#f5f2e4" opacity="0.09"/><g clip-path="url(#c6)"><circle cx="201.6" cy="151.36" r="7.24" fill="#4e3c27"/></g><circle cx="201.6" cy="151.36" r="7.24" fill="none" stroke="rgba(255,255,255,0.10)" stroke-width="1.4" stroke-linejoin="round"/><g clip-path="url(#c7)"><rect x="198.11" y="127.02" width="6.99" height="24.96" rx="3.49" fill="#d9a441"/><rect x="197.11" y="127.02" width="8.99" height="2.68" fill="#725622"/><rect x="197.11" y="129.1" width="8.99" height="2.68" fill="#735722"/><rect x="197.11" y="131.18" width="8.99" height="2.68" fill="#735722"/><rect x="197.11" y="133.26" width="8.99" height="2.68" fill="#735723"/><rect x="197.11" y="135.34" width="8.99" height="2.68" fill="#745723"/><rect x="197.11" y="137.42" width="8.99" height="2.68" fill="#745823"/><rect x="197.11" y="139.5" width="8.99" height="2.68" fill="#745823"/><rect x="197.11" y="141.58" width="8.99" height="2.68" fill="#755823"/><rect x="197.11" y="143.66" width="8.99" height="2.68" fill="#755923"/><rect x="197.11" y="145.74" width="8.99" height="2.68" fill="#755923"/><rect x="197.11" y="147.82" width="8.99" height="2.68" fill="#765923"/><rect x="197.11" y="149.9" width="8.99" height="2.68" fill="#765923"/></g><rect x="198.11" y="127.02" width="6.99" height="24.96" rx="3.49" fill="none" stroke="rgba(90,60,20,0.55)" stroke-width="1.8" stroke-linejoin="round"/><g clip-path="url(#c8)"><circle cx="190.99" cy="122.66" r="8.99" fill="#d9a441"/><rect x="181.01" y="113.67" width="19.97" height="2.1" fill="#705522"/><rect x="181.01" y="115.17" width="19.97" height="2.1" fill="#705522"/><rect x="181.01" y="116.67" width="19.97" height="2.1" fill="#715522"/><rect x="181.01" y="118.16" width="19.97" height="2.1" fill="#715522"/><rect x="181.01" y="119.66" width="19.97" height="2.1" fill="#715522"/><rect x="181.01" y="121.16" width="19.97" height="2.1" fill="#715622"/><rect x="181.01" y="122.66" width="19.97" height="2.1" fill="#725622"/><rect x="181.01" y="124.15" width="19.97" height="2.1" fill="#725622"/><rect x="181.01" y="125.65" width="19.97" height="2.1" fill="#725622"/><rect x="181.01" y="127.15" width="19.97" height="2.1" fill="#725622"/><rect x="181.01" y="128.65" width="19.97" height="2.1" fill="#735722"/><rect x="181.01" y="130.14" width="19.97" height="2.1" fill="#735722"/></g><circle cx="190.99" cy="122.66" r="8.99" fill="none" stroke="rgba(90,60,20,0.55)" stroke-width="1.8" stroke-linejoin="round"/><g clip-path="url(#c9)"><circle cx="212.21" cy="122.66" r="8.99" fill="#d9a441"/><rect x="202.22" y="113.67" width="19.97" height="2.1" fill="#705522"/><rect x="202.22" y="115.17" width="19.97" height="2.1" fill="#705522"/><rect x="202.22" y="116.67" width="19.97" height="2.1" fill="#715522"/><rect x="202.22" y="118.16" width="19.97" height="2.1" fill="#715522"/><rect x="202.22" y="119.66" width="19.97" height="2.1" fill="#715522"/><rect x="202.22" y="121.16" width="19.97" height="2.1" fill="#715622"/><rect x="202.22" y="122.66" width="19.97" height="2.1" fill="#725622"/><rect x="202.22" y="124.15" width="19.97" height="2.1" fill="#725622"/><rect x="202.22" y="125.65" width="19.97" height="2.1" fill="#725622"/><rect x="202.22" y="127.15" width="19.97" height="2.1" fill="#725622"/><rect x="202.22" y="128.65" width="19.97" height="2.1" fill="#735722"/><rect x="202.22" y="130.14" width="19.97" height="2.1" fill="#735722"/></g><circle cx="212.21" cy="122.66" r="8.99" fill="none" stroke="rgba(90,60,20,0.55)" stroke-width="1.8" stroke-linejoin="round"/></svg>