<svg xmlns="http://www.w3.org/2000/svg" width="256" height="224" viewBox="0 0 256 224"><defs>
 <radialGradient id="porcelain" cx=".45" cy=".25" r=".85"><stop stop-color="#fffef6"/><stop offset="1" stop-color="#f4e7c8"/></radialGradient>
 <linearGradient id="crust" x2="0" y2="1"><stop stop-color="#f7d081"/><stop offset="1" stop-color="#d79d51"/></linearGradient>
 <linearGradient id="tomato" x2="0" y2="1"><stop stop-color="#ea7755"/><stop offset="1" stop-color="#bf4e36"/></linearGradient>
 <linearGradient id="cream" x2=".4" y2="1"><stop stop-color="#fffef0"/><stop offset="1" stop-color="#f1dbab"/></linearGradient>
 <linearGradient id="jade" x2=".5" y2="1"><stop stop-color="#a7c9ba"/><stop offset="1" stop-color="#629485"/></linearGradient>
 <linearGradient id="copper" x2=".7" y2="1"><stop stop-color="#efc091"/><stop offset=".45" stop-color="#cf9164"/><stop offset="1" stop-color="#b7764c"/></linearGradient>
 <linearGradient id="lemon" x2="0" y2="1"><stop stop-color="#f9df77"/><stop offset="1" stop-color="#edbd4e"/></linearGradient>
 </defs><ellipse cx="126" cy="171" rx="98" ry="22" fill="#94744928" stroke="none" stroke-width="1.5"/><ellipse cx="128" cy="150" rx="99" ry="35" fill="#ad794b" stroke="#80634c" stroke-width="1.5"/><ellipse cx="128" cy="143" rx="99" ry="35" fill="#d9ad73" stroke="#80634c" stroke-width="1.7"/><ellipse cx="128" cy="141" rx="91" ry="29" fill="none" stroke="#bd915e" stroke-width="1.2"/><path d="M55 144Q75 164 121 166M141 166Q176 163 197 150" fill="none" stroke="#edc993" stroke-width="1.4" stroke-linecap="round" stroke-linejoin="round"/><path d="M70 125L117 104L125 147Z" fill="#bc8546" stroke="#936637" stroke-width="1.3" stroke-linecap="round" stroke-linejoin="round"/><path d="M70 119L117 98L125 141Z" fill="url(#crust)" stroke="#a16f3b" stroke-width="1.3" stroke-linecap="round" stroke-linejoin="round"/><path d="M89 116.33333333333333q4-8 10-7q6 4 12 1q10 3 5 10q-6 6-14 2q-10 4-13-6Z" fill="#fff0c2" stroke="#e5ba6c" stroke-width="0.8" stroke-linecap="round" stroke-linejoin="round"/><path d="M95 115.33333333333333l9-2 4 4-11 3Z" fill="#c86e41" stroke="#a55331" stroke-width="0.7" stroke-linecap="round" stroke-linejoin="round"/><g transform="translate(112 123.33333333333333) rotate(-30)"><g transform="scale(0.58)"><path d="M0 0Q-12-3-9-15Q6-17 9-9Q10-2 0 0Z" fill="#629647" stroke="#4e713b" stroke-width="1.1" stroke-linecap="round" stroke-linejoin="round"/><path d="M0-1Q1-8-7-13" fill="none" stroke="#b1c780" stroke-width="1.2" stroke-linecap="round" stroke-linejoin="round"/></g></g><ellipse cx="92" cy="128.33333333333331" rx="1.8" ry="0.8" fill="#ab773e" stroke="none" stroke-width="1.5"/><ellipse cx="99" cy="118.33333333333331" rx="1.8" ry="0.8" fill="#ab773e" stroke="none" stroke-width="1.5"/><ellipse cx="106" cy="128.33333333333331" rx="1.8" ry="0.8" fill="#ab773e" stroke="none" stroke-width="1.5"/><ellipse cx="113" cy="118.33333333333331" rx="1.8" ry="0.8" fill="#ab773e" stroke="none" stroke-width="1.5"/><g transform="translate(110 122.33333333333333) rotate(-15)"><ellipse cx="0" cy="0" rx="11" ry="5" fill="#886a55" stroke="#674f43" stroke-width="1"/><path d="M-7 0Q-2-4 3 0T8 0" fill="none" stroke="#c7ad8a" stroke-width="1" stroke-linecap="round" stroke-linejoin="round"/><path d="M-4 2 0-2 5 2" fill="none" stroke="#b69877" stroke-width="0.8" stroke-linecap="round" stroke-linejoin="round"/></g><path d="M127 109L178 121L134 149Z" fill="#bc8546" stroke="#936637" stroke-width="1.3" stroke-linecap="round" stroke-linejoin="round"/><path d="M127 103L178 115L134 143Z" fill="url(#crust)" stroke="#a16f3b" stroke-width="1.3" stroke-linecap="round" stroke-linejoin="round"/><path d="M131.33333333333334 117.33333333333333q4-8 10-7q6 4 12 1q10 3 5 10q-6 6-14 2q-10 4-13-6Z" fill="#fff0c2" stroke="#e5ba6c" stroke-width="0.8" stroke-linecap="round" stroke-linejoin="round"/><path d="M137.33333333333334 116.33333333333333l9-2 4 4-11 3Z" fill="#c86e41" stroke="#a55331" stroke-width="0.7" stroke-linecap="round" stroke-linejoin="round"/><g transform="translate(154.33333333333334 124.33333333333333) rotate(8)"><g transform="scale(0.58)"><path d="M0 0Q-12-3-9-15Q6-17 9-9Q10-2 0 0Z" fill="#629647" stroke="#4e713b" stroke-width="1.1" stroke-linecap="round" stroke-linejoin="round"/><path d="M0-1Q1-8-7-13" fill="none" stroke="#b1c780" stroke-width="1.2" stroke-linecap="round" stroke-linejoin="round"/></g></g><ellipse cx="134.33333333333334" cy="129.33333333333331" rx="1.8" ry="0.8" fill="#ab773e" stroke="none" stroke-width="1.5"/><ellipse cx="141.33333333333334" cy="119.33333333333331" rx="1.8" ry="0.8" fill="#ab773e" stroke="none" stroke-width="1.5"/><ellipse cx="148.33333333333334" cy="129.33333333333331" rx="1.8" ry="0.8" fill="#ab773e" stroke="none" stroke-width="1.5"/><ellipse cx="155.33333333333334" cy="119.33333333333331" rx="1.8" ry="0.8" fill="#ab773e" stroke="none" stroke-width="1.5"/><g transform="translate(152.33333333333334 123.33333333333333) rotate(-5)"><ellipse cx="0" cy="0" rx="11" ry="5" fill="#886a55" stroke="#674f43" stroke-width="1"/><path d="M-7 0Q-2-4 3 0T8 0" fill="none" stroke="#c7ad8a" stroke-width="1" stroke-linecap="round" stroke-linejoin="round"/><path d="M-4 2 0-2 5 2" fill="none" stroke="#b69877" stroke-width="0.8" stroke-linecap="round" stroke-linejoin="round"/></g><path d="M91 153L129 126L171 152Z" fill="#bc8546" stroke="#936637" stroke-width="1.3" stroke-linecap="round" stroke-linejoin="round"/><path d="M91 147L129 120L171 146Z" fill="url(#crust)" stroke="#a16f3b" stroke-width="1.3" stroke-linecap="round" stroke-linejoin="round"/><path d="M115.33333333333334 134.66666666666666q4-8 10-7q6 4 12 1q10 3 5 10q-6 6-14 2q-10 4-13-6Z" fill="#fff0c2" stroke="#e5ba6c" stroke-width="0.8" stroke-linecap="round" stroke-linejoin="round"/><path d="M121.33333333333334 133.66666666666666l9-2 4 4-11 3Z" fill="#c86e41" stroke="#a55331" stroke-width="0.7" stroke-linecap="round" stroke-linejoin="round"/><g transform="translate(138.33333333333334 141.66666666666666) rotate(46)"><g transform="scale(0.58)"><path d="M0 0Q-12-3-9-15Q6-17 9-9Q10-2 0 0Z" fill="#629647" stroke="#4e713b" stroke-width="1.1" stroke-linecap="round" stroke-linejoin="round"/><path d="M0-1Q1-8-7-13" fill="none" stroke="#b1c780" stroke-width="1.2" stroke-linecap="round" stroke-linejoin="round"/></g></g><ellipse cx="118.33333333333334" cy="146.66666666666666" rx="1.8" ry="0.8" fill="#ab773e" stroke="none" stroke-width="1.5"/><ellipse cx="125.33333333333334" cy="136.66666666666666" rx="1.8" ry="0.8" fill="#ab773e" stroke="none" stroke-width="1.5"/><ellipse cx="132.33333333333334" cy="146.66666666666666" rx="1.8" ry="0.8" fill="#ab773e" stroke="none" stroke-width="1.5"/><ellipse cx="139.33333333333334" cy="136.66666666666666" rx="1.8" ry="0.8" fill="#ab773e" stroke="none" stroke-width="1.5"/><g transform="translate(136.33333333333334 140.66666666666666) rotate(5)"><ellipse cx="0" cy="0" rx="11" ry="5" fill="#886a55" stroke="#674f43" stroke-width="1"/><path d="M-7 0Q-2-4 3 0T8 0" fill="none" stroke="#c7ad8a" stroke-width="1" stroke-linecap="round" stroke-linejoin="round"/><path d="M-4 2 0-2 5 2" fill="none" stroke="#b69877" stroke-width="0.8" stroke-linecap="round" stroke-linejoin="round"/></g><path d="M130 103L171 97L179 117Z" fill="#bc8546" stroke="#936637" stroke-width="1.3" stroke-linecap="round" stroke-linejoin="round"/><path d="M130 97L171 91L179 111Z" fill="url(#crust)" stroke="#a16f3b" stroke-width="1.3" stroke-linecap="round" stroke-linejoin="round"/><path d="M145 96.66666666666667q4-8 10-7q6 4 12 1q10 3 5 10q-6 6-14 2q-10 4-13-6Z" fill="#fff0c2" stroke="#e5ba6c" stroke-width="0.8" stroke-linecap="round" stroke-linejoin="round"/><path d="M151 95.66666666666667l9-2 4 4-11 3Z" fill="#c86e41" stroke="#a55331" stroke-width="0.7" stroke-linecap="round" stroke-linejoin="round"/><g transform="translate(168 103.66666666666667) rotate(84)"><g transform="scale(0.58)"><path d="M0 0Q-12-3-9-15Q6-17 9-9Q10-2 0 0Z" fill="#629647" stroke="#4e713b" stroke-width="1.1" stroke-linecap="round" stroke-linejoin="round"/><path d="M0-1Q1-8-7-13" fill="none" stroke="#b1c780" stroke-width="1.2" stroke-linecap="round" stroke-linejoin="round"/></g></g><ellipse cx="148" cy="108.66666666666667" rx="1.8" ry="0.8" fill="#ab773e" stroke="none" stroke-width="1.5"/><ellipse cx="155" cy="98.66666666666667" rx="1.8" ry="0.8" fill="#ab773e" stroke="none" stroke-width="1.5"/><ellipse cx="162" cy="108.66666666666667" rx="1.8" ry="0.8" fill="#ab773e" stroke="none" stroke-width="1.5"/><ellipse cx="169" cy="98.66666666666667" rx="1.8" ry="0.8" fill="#ab773e" stroke="none" stroke-width="1.5"/><g transform="translate(166 102.66666666666667) rotate(15)"><ellipse cx="0" cy="0" rx="11" ry="5" fill="#886a55" stroke="#674f43" stroke-width="1"/><path d="M-7 0Q-2-4 3 0T8 0" fill="none" stroke="#c7ad8a" stroke-width="1" stroke-linecap="round" stroke-linejoin="round"/><path d="M-4 2 0-2 5 2" fill="none" stroke="#b69877" stroke-width="0.8" stroke-linecap="round" stroke-linejoin="round"/></g><g transform="translate(69 147) rotate(-55)"><g transform="scale(0.76)"><path d="M0 0Q-12-3-9-15Q6-17 9-9Q10-2 0 0Z" fill="#629647" stroke="#4e713b" stroke-width="1.1" stroke-linecap="round" stroke-linejoin="round"/><path d="M0-1Q1-8-7-13" fill="none" stroke="#b1c780" stroke-width="1.2" stroke-linecap="round" stroke-linejoin="round"/></g></g><g transform="translate(78 155) rotate(-25)"><g transform="scale(0.64)"><path d="M0 0Q-12-3-9-15Q6-17 9-9Q10-2 0 0Z" fill="#629647" stroke="#4e713b" stroke-width="1.1" stroke-linecap="round" stroke-linejoin="round"/><path d="M0-1Q1-8-7-13" fill="none" stroke="#b1c780" stroke-width="1.2" stroke-linecap="round" stroke-linejoin="round"/></g></g><g transform="translate(179 141) rotate(12)"><g transform="scale(0.95)"><ellipse cx="0" cy="0" rx="9" ry="5" fill="#df6945" stroke="#b05236" stroke-width="1"/><path d="M-6 0Q0-5 6 0Q0 5-6 0Z" fill="#f29d61" stroke="none" stroke-width="1.7" stroke-linecap="round" stroke-linejoin="round"/><ellipse cx="-2" cy="-0.7" rx="1" ry="0.8" fill="#f9da8e" stroke="none" stroke-width="1.5"/><ellipse cx="2" cy="1" rx="1" ry="0.8" fill="#f9da8e" stroke="none" stroke-width="1.5"/></g></g><g transform="translate(185 155) rotate(-6)"><g transform="scale(0.83)"><ellipse cx="0" cy="0" rx="9" ry="5" fill="#df6945" stroke="#b05236" stroke-width="1"/><path d="M-6 0Q0-5 6 0Q0 5-6 0Z" fill="#f29d61" stroke="none" stroke-width="1.7" stroke-linecap="round" stroke-linejoin="round"/><ellipse cx="-2" cy="-0.7" rx="1" ry="0.8" fill="#f9da8e" stroke="none" stroke-width="1.5"/><ellipse cx="2" cy="1" rx="1" ry="0.8" fill="#f9da8e" stroke="none" stroke-width="1.5"/></g></g><g transform="translate(187 149) rotate(-46)"><g transform="scale(0.62)"><path d="M0 0Q-12-3-9-15Q6-17 9-9Q10-2 0 0Z" fill="#629647" stroke="#4e713b" stroke-width="1.1" stroke-linecap="round" stroke-linejoin="round"/><path d="M0-1Q1-8-7-13" fill="none" stroke="#b1c780" stroke-width="1.2" stroke-linecap="round" stroke-linejoin="round"/></g></g><g transform="translate(190 150) rotate(49)"><g transform="scale(0.62)"><path d="M0 0Q-12-3-9-15Q6-17 9-9Q10-2 0 0Z" fill="#85ae50" stroke="#4e713b" stroke-width="1.1" stroke-linecap="round" stroke-linejoin="round"/><path d="M0-1Q1-8-7-13" fill="none" stroke="#b1c780" stroke-width="1.2" stroke-linecap="round" stroke-linejoin="round"/></g></g><g transform="translate(187 148) rotate(4)"><g transform="scale(0.496)"><path d="M0 0Q-12-3-9-15Q6-17 9-9Q10-2 0 0Z" fill="#588b42" stroke="#4e713b" stroke-width="1.1" stroke-linecap="round" stroke-linejoin="round"/><path d="M0-1Q1-8-7-13" fill="none" stroke="#b1c780" stroke-width="1.2" stroke-linecap="round" stroke-linejoin="round"/></g></g><path d="M61 145Q91 179 168 161" fill="none" stroke="#ead191" stroke-width="1.2" stroke-linecap="round" stroke-linejoin="round"/></svg>