<svg xmlns="http://www.w3.org/2000/svg" width="256" height="224" viewBox="0 0 256 224"><defs>
 <radialGradient id="porcelain" cx=".45" cy=".25" r=".85"><stop stop-color="#fffef6"/><stop offset="1" stop-color="#f4e7c8"/></radialGradient>
 <linearGradient id="crust" x2="0" y2="1"><stop stop-color="#f7d081"/><stop offset="1" stop-color="#d79d51"/></linearGradient>
 <linearGradient id="tomato" x2="0" y2="1"><stop stop-color="#ea7755"/><stop offset="1" stop-color="#bf4e36"/></linearGradient>
 <linearGradient id="cream" x2=".4" y2="1"><stop stop-color="#fffef0"/><stop offset="1" stop-color="#f1dbab"/></linearGradient>
 <linearGradient id="jade" x2=".5" y2="1"><stop stop-color="#a7c9ba"/><stop offset="1" stop-color="#629485"/></linearGradient>
 <linearGradient id="copper" x2=".7" y2="1"><stop stop-color="#efc091"/><stop offset=".45" stop-color="#cf9164"/><stop offset="1" stop-color="#b7764c"/></linearGradient>
 <linearGradient id="lemon" x2="0" y2="1"><stop stop-color="#f9df77"/><stop offset="1" stop-color="#edbd4e"/></linearGradient>
 </defs><ellipse cx="128" cy="174" rx="95" ry="21" fill="#836f4824" stroke="none" stroke-width="1.5"/><ellipse cx="128" cy="151" rx="99" ry="37" fill="#ded8bf" stroke="#80634c" stroke-width="1.5"/><ellipse cx="128" cy="144" rx="102" ry="41" fill="url(#porcelain)" stroke="#80634c" stroke-width="1.7"/><ellipse cx="128" cy="141" rx="84" ry="31" fill="none" stroke="#e4d6b4" stroke-width="1.7"/><ellipse cx="128" cy="143" rx="97" ry="37" fill="none" stroke="#c5a663" stroke-width="1.6"/><ellipse cx="128" cy="141" rx="87" ry="32" fill="none" stroke="#bb7953" stroke-width="2.2"/><ellipse cx="210.37282792412316" cy="159.86137859356003" rx="2.4" ry="1.35" fill="#bb7953" stroke="none" stroke-width="1.5"/><ellipse cx="139.7813239550446" cy="177.72401454600674" rx="2.4" ry="1.35" fill="#bb7953" stroke="none" stroke-width="1.5"/><ellipse cx="55.57175517907582" cy="165.30983964120415" rx="2.4" ry="1.35" fill="#bb7953" stroke="none" stroke-width="1.5"/><ellipse cx="42.94625706819414" cy="128.09772479522246" rx="2.4" ry="1.35" fill="#bb7953" stroke="none" stroke-width="1.5"/><ellipse cx="116.21867604495537" cy="108.27598545399329" rx="2.4" ry="1.35" fill="#bb7953" stroke="none" stroke-width="1.5"/><ellipse cx="204.04759747124507" cy="122.42751616976344" rx="2.4" ry="1.35" fill="#bb7953" stroke="none" stroke-width="1.5"/><path d="M65 112 117 94 184 117 167 162 98 177Z" fill="#fff0cd" stroke="#b79b76" stroke-width="1.5" stroke-linecap="round" stroke-linejoin="round"/><g transform="translate(86 112) rotate(-36)"><path d="M-4 0 1-34 8-34 3 3Z" fill="#edbc58" stroke="#c59340" stroke-width="1" stroke-linecap="round" stroke-linejoin="round"/><path d="M0-4 4-30" fill="none" stroke="#ffe198" stroke-width="2" stroke-linecap="round" stroke-linejoin="round"/></g><g transform="translate(105 123) rotate(-18)"><path d="M-4 0 1-34 8-34 3 3Z" fill="#edbc58" stroke="#c59340" stroke-width="1" stroke-linecap="round" stroke-linejoin="round"/><path d="M0-4 4-30" fill="none" stroke="#ffe198" stroke-width="2" stroke-linecap="round" stroke-linejoin="round"/></g><g transform="translate(124 134) rotate(0)"><path d="M-4 0 1-34 8-34 3 3Z" fill="#edbc58" stroke="#c59340" stroke-width="1" stroke-linecap="round" stroke-linejoin="round"/><path d="M0-4 4-30" fill="none" stroke="#ffe198" stroke-width="2" stroke-linecap="round" stroke-linejoin="round"/></g><g transform="translate(143 118) rotate(18)"><path d="M-4 0 1-34 8-34 3 3Z" fill="#edbc58" stroke="#c59340" stroke-width="1" stroke-linecap="round" stroke-linejoin="round"/><path d="M0-4 4-30" fill="none" stroke="#ffe198" stroke-width="2" stroke-linecap="round" stroke-linejoin="round"/></g><g transform="translate(91 129) rotate(36)"><path d="M-4 0 1-34 8-34 3 3Z" fill="#edbc58" stroke="#c59340" stroke-width="1" stroke-linecap="round" stroke-linejoin="round"/><path d="M0-4 4-30" fill="none" stroke="#ffe198" stroke-width="2" stroke-linecap="round" stroke-linejoin="round"/></g><g transform="translate(110 113) rotate(-36)"><path d="M-4 0 1-34 8-34 3 3Z" fill="#edbc58" stroke="#c59340" stroke-width="1" stroke-linecap="round" stroke-linejoin="round"/><path d="M0-4 4-30" fill="none" stroke="#ffe198" stroke-width="2" stroke-linecap="round" stroke-linejoin="round"/></g><g transform="translate(129 124) rotate(-18)"><path d="M-4 0 1-34 8-34 3 3Z" fill="#edbc58" stroke="#c59340" stroke-width="1" stroke-linecap="round" stroke-linejoin="round"/><path d="M0-4 4-30" fill="none" stroke="#ffe198" stroke-width="2" stroke-linecap="round" stroke-linejoin="round"/></g><g transform="translate(148 135) rotate(0)"><path d="M-4 0 1-34 8-34 3 3Z" fill="#edbc58" stroke="#c59340" stroke-width="1" stroke-linecap="round" stroke-linejoin="round"/><path d="M0-4 4-30" fill="none" stroke="#ffe198" stroke-width="2" stroke-linecap="round" stroke-linejoin="round"/></g><g transform="translate(96 119) rotate(18)"><path d="M-4 0 1-34 8-34 3 3Z" fill="#edbc58" stroke="#c59340" stroke-width="1" stroke-linecap="round" stroke-linejoin="round"/><path d="M0-4 4-30" fill="none" stroke="#ffe198" stroke-width="2" stroke-linecap="round" stroke-linejoin="round"/></g><g transform="translate(115 130) rotate(36)"><path d="M-4 0 1-34 8-34 3 3Z" fill="#edbc58" stroke="#c59340" stroke-width="1" stroke-linecap="round" stroke-linejoin="round"/><path d="M0-4 4-30" fill="none" stroke="#ffe198" stroke-width="2" stroke-linecap="round" stroke-linejoin="round"/></g><g transform="translate(134 114) rotate(-36)"><path d="M-4 0 1-34 8-34 3 3Z" fill="#edbc58" stroke="#c59340" stroke-width="1" stroke-linecap="round" stroke-linejoin="round"/><path d="M0-4 4-30" fill="none" stroke="#ffe198" stroke-width="2" stroke-linecap="round" stroke-linejoin="round"/></g><g transform="translate(153 125) rotate(-18)"><path d="M-4 0 1-34 8-34 3 3Z" fill="#edbc58" stroke="#c59340" stroke-width="1" stroke-linecap="round" stroke-linejoin="round"/><path d="M0-4 4-30" fill="none" stroke="#ffe198" stroke-width="2" stroke-linecap="round" stroke-linejoin="round"/></g><g transform="translate(101 136) rotate(0)"><path d="M-4 0 1-34 8-34 3 3Z" fill="#edbc58" stroke="#c59340" stroke-width="1" stroke-linecap="round" stroke-linejoin="round"/><path d="M0-4 4-30" fill="none" stroke="#ffe198" stroke-width="2" stroke-linecap="round" stroke-linejoin="round"/></g><g transform="translate(120 120) rotate(18)"><path d="M-4 0 1-34 8-34 3 3Z" fill="#edbc58" stroke="#c59340" stroke-width="1" stroke-linecap="round" stroke-linejoin="round"/><path d="M0-4 4-30" fill="none" stroke="#ffe198" stroke-width="2" stroke-linecap="round" stroke-linejoin="round"/></g><g transform="translate(139 131) rotate(36)"><path d="M-4 0 1-34 8-34 3 3Z" fill="#edbc58" stroke="#c59340" stroke-width="1" stroke-linecap="round" stroke-linejoin="round"/><path d="M0-4 4-30" fill="none" stroke="#ffe198" stroke-width="2" stroke-linecap="round" stroke-linejoin="round"/></g><g transform="translate(87 115) rotate(-36)"><path d="M-4 0 1-34 8-34 3 3Z" fill="#edbc58" stroke="#c59340" stroke-width="1" stroke-linecap="round" stroke-linejoin="round"/><path d="M0-4 4-30" fill="none" stroke="#ffe198" stroke-width="2" stroke-linecap="round" stroke-linejoin="round"/></g><g transform="translate(106 126) rotate(-18)"><path d="M-4 0 1-34 8-34 3 3Z" fill="#edbc58" stroke="#c59340" stroke-width="1" stroke-linecap="round" stroke-linejoin="round"/><path d="M0-4 4-30" fill="none" stroke="#ffe198" stroke-width="2" stroke-linecap="round" stroke-linejoin="round"/></g><path d="M67 126 124 145 176 125 165 165 99 177Z" fill="#537d65" stroke="#985847" stroke-width="1.8" stroke-linecap="round" stroke-linejoin="round"/><path d="M83 135 103 172M109 144 120 173M143 140 143 170M165 133 159 165" fill="none" stroke="#e6ce90" stroke-width="5" stroke-linecap="round" stroke-linejoin="round"/><g transform="translate(111 119) rotate(12)"><path d="M-8 0 3-6 12-2 1 5Z" fill="#fff4ce" stroke="#dabd84" stroke-width="0.7" stroke-linecap="round" stroke-linejoin="round"/></g><g transform="translate(143 121) rotate(-10)"><path d="M-8 0 3-6 12-2 1 5Z" fill="#fff4ce" stroke="#dabd84" stroke-width="0.7" stroke-linecap="round" stroke-linejoin="round"/></g><g transform="translate(132 105) rotate(30)"><g transform="scale(0.7)"><path d="M0 0Q-12-3-9-15Q6-17 9-9Q10-2 0 0Z" fill="#629647" stroke="#4e713b" stroke-width="1.1" stroke-linecap="round" stroke-linejoin="round"/><path d="M0-1Q1-8-7-13" fill="none" stroke="#b1c780" stroke-width="1.2" stroke-linecap="round" stroke-linejoin="round"/></g></g><ellipse cx="186" cy="155" rx="20" ry="11" fill="#fff3d4" stroke="#997959" stroke-width="1.4"/><ellipse cx="186" cy="153" rx="16" ry="7" fill="#c85e40" stroke="#a44d35" stroke-width="1"/><path d="M176 152Q184 148 191 152" fill="none" stroke="#f0a170" stroke-width="1.5" stroke-linecap="round" stroke-linejoin="round"/><g transform="translate(176 138) rotate(-46)"><g transform="scale(0.55)"><path d="M0 0Q-12-3-9-15Q6-17 9-9Q10-2 0 0Z" fill="#629647" stroke="#4e713b" stroke-width="1.1" stroke-linecap="round" stroke-linejoin="round"/><path d="M0-1Q1-8-7-13" fill="none" stroke="#b1c780" stroke-width="1.2" stroke-linecap="round" stroke-linejoin="round"/></g></g><g transform="translate(179 139) rotate(49)"><g transform="scale(0.55)"><path d="M0 0Q-12-3-9-15Q6-17 9-9Q10-2 0 0Z" fill="#85ae50" stroke="#4e713b" stroke-width="1.1" stroke-linecap="round" stroke-linejoin="round"/><path d="M0-1Q1-8-7-13" fill="none" stroke="#b1c780" stroke-width="1.2" stroke-linecap="round" stroke-linejoin="round"/></g></g><g transform="translate(176 137) rotate(4)"><g transform="scale(0.44000000000000006)"><path d="M0 0Q-12-3-9-15Q6-17 9-9Q10-2 0 0Z" fill="#588b42" stroke="#4e713b" stroke-width="1.1" stroke-linecap="round" stroke-linejoin="round"/><path d="M0-1Q1-8-7-13" fill="none" stroke="#b1c780" stroke-width="1.2" stroke-linecap="round" stroke-linejoin="round"/></g></g></svg>