<svg xmlns="http://www.w3.org/2000/svg" width="256" height="224" viewBox="0 0 256 224"><defs>
 <radialGradient id="porcelain" cx=".45" cy=".25" r=".85"><stop stop-color="#fffef6"/><stop offset="1" stop-color="#f4e7c8"/></radialGradient>
 <linearGradient id="crust" x2="0" y2="1"><stop stop-color="#f7d081"/><stop offset="1" stop-color="#d79d51"/></linearGradient>
 <linearGradient id="tomato" x2="0" y2="1"><stop stop-color="#ea7755"/><stop offset="1" stop-color="#bf4e36"/></linearGradient>
 <linearGradient id="cream" x2=".4" y2="1"><stop stop-color="#fffef0"/><stop offset="1" stop-color="#f1dbab"/></linearGradient>
 <linearGradient id="jade" x2=".5" y2="1"><stop stop-color="#a7c9ba"/><stop offset="1" stop-color="#629485"/></linearGradient>
 <linearGradient id="copper" x2=".7" y2="1"><stop stop-color="#efc091"/><stop offset=".45" stop-color="#cf9164"/><stop offset="1" stop-color="#b7764c"/></linearGradient>
 <linearGradient id="lemon" x2="0" y2="1"><stop stop-color="#f9df77"/><stop offset="1" stop-color="#edbd4e"/></linearGradient>
 </defs><ellipse cx="128" cy="174" rx="95" ry="21" fill="#836f4824" stroke="none" stroke-width="1.5"/><ellipse cx="128" cy="151" rx="99" ry="37" fill="#ded8bf" stroke="#80634c" stroke-width="1.5"/><ellipse cx="128" cy="144" rx="102" ry="41" fill="url(#porcelain)" stroke="#80634c" stroke-width="1.7"/><ellipse cx="128" cy="141" rx="84" ry="31" fill="none" stroke="#e4d6b4" stroke-width="1.7"/><path d="M43 141Q54 115 93 112" fill="none" stroke="#fffefa" stroke-width="2.8" stroke-linecap="round" stroke-linejoin="round"/><ellipse cx="131" cy="155" rx="55" ry="18" fill="#95724925" stroke="none" stroke-width="1.5"/><path d="M75 142L124 168L124 176L75 150Z" fill="#b88a63" stroke="#957253" stroke-width="0.8" stroke-linecap="round" stroke-linejoin="round"/><path d="M124 168L181 138L181 146L124 176Z" fill="#b88a63" stroke="#957253" stroke-width="0.8" stroke-linecap="round" stroke-linejoin="round"/><path d="M75 132L124 158L124 168L75 142Z" fill="#f7e9c6" stroke="#957253" stroke-width="0.8" stroke-linecap="round" stroke-linejoin="round"/><path d="M124 158L181 128L181 138L124 168Z" fill="#f7e9c6" stroke="#957253" stroke-width="0.8" stroke-linecap="round" stroke-linejoin="round"/><path d="M75 125L124 151L124 158L75 132Z" fill="#b78a64" stroke="#957253" stroke-width="0.8" stroke-linecap="round" stroke-linejoin="round"/><path d="M124 151L181 121L181 128L124 158Z" fill="#b78a64" stroke="#957253" stroke-width="0.8" stroke-linecap="round" stroke-linejoin="round"/><path d="M75 113L124 139L124 151L75 125Z" fill="#fff0d1" stroke="#957253" stroke-width="0.8" stroke-linecap="round" stroke-linejoin="round"/><path d="M124 139L181 109L181 121L124 151Z" fill="#fff0d1" stroke="#957253" stroke-width="0.8" stroke-linecap="round" stroke-linejoin="round"/><path d="M75 105L124 131L124 139L75 113Z" fill="#d3ae7e" stroke="#957253" stroke-width="0.8" stroke-linecap="round" stroke-linejoin="round"/><path d="M124 131L181 101L181 109L124 139Z" fill="#d3ae7e" stroke="#957253" stroke-width="0.8" stroke-linecap="round" stroke-linejoin="round"/><path d="M75 105L132 77L181 101L124 131Z" fill="#f8e6c3" stroke="#80634c" stroke-width="1.6" stroke-linecap="round" stroke-linejoin="round"/><path d="M80 104L132 81L176 102L124 127Z" fill="#977050" stroke="#856148" stroke-width="1" stroke-linecap="round" stroke-linejoin="round"/><path d="M86 108 124 125 170 103" fill="none" stroke="#b98f67" stroke-width="1.3" stroke-linecap="round" stroke-linejoin="round"/><ellipse cx="82" cy="105" rx="0.7" ry="0.45" fill="#c9a57d" stroke="none" stroke-width="1.5"/><ellipse cx="124.25" cy="99.83" rx="0.7" ry="0.45" fill="#c9a57d" stroke="none" stroke-width="1.5"/><ellipse cx="121.5" cy="114.66" rx="0.7" ry="0.45" fill="#c9a57d" stroke="none" stroke-width="1.5"/><ellipse cx="123.75" cy="90.49000000000001" rx="0.7" ry="0.45" fill="#c9a57d" stroke="none" stroke-width="1.5"/><ellipse cx="121" cy="105.32000000000001" rx="0.7" ry="0.45" fill="#c9a57d" stroke="none" stroke-width="1.5"/><ellipse cx="118.25" cy="120.15" rx="0.7" ry="0.45" fill="#c9a57d" stroke="none" stroke-width="1.5"/><ellipse cx="120.5" cy="95.98" rx="0.7" ry="0.45" fill="#c9a57d" stroke="none" stroke-width="1.5"/><ellipse cx="117.75" cy="110.80999999999999" rx="0.7" ry="0.45" fill="#c9a57d" stroke="none" stroke-width="1.5"/><ellipse cx="160" cy="105.63999999999999" rx="0.7" ry="0.45" fill="#c9a57d" stroke="none" stroke-width="1.5"/><ellipse cx="117.25" cy="101.47" rx="0.7" ry="0.45" fill="#c9a57d" stroke="none" stroke-width="1.5"/><ellipse cx="114.5" cy="116.3" rx="0.7" ry="0.45" fill="#c9a57d" stroke="none" stroke-width="1.5"/><ellipse cx="116.75" cy="92.13" rx="0.7" ry="0.45" fill="#c9a57d" stroke="none" stroke-width="1.5"/><ellipse cx="114" cy="106.96" rx="0.7" ry="0.45" fill="#c9a57d" stroke="none" stroke-width="1.5"/><ellipse cx="156.25" cy="101.78999999999999" rx="0.7" ry="0.45" fill="#c9a57d" stroke="none" stroke-width="1.5"/><ellipse cx="113.5" cy="97.62" rx="0.7" ry="0.45" fill="#c9a57d" stroke="none" stroke-width="1.5"/><ellipse cx="110.75" cy="112.45" rx="0.7" ry="0.45" fill="#c9a57d" stroke="none" stroke-width="1.5"/><ellipse cx="153" cy="107.28" rx="0.7" ry="0.45" fill="#c9a57d" stroke="none" stroke-width="1.5"/><ellipse cx="110.25" cy="103.11" rx="0.7" ry="0.45" fill="#c9a57d" stroke="none" stroke-width="1.5"/><ellipse cx="152.5" cy="97.94" rx="0.7" ry="0.45" fill="#c9a57d" stroke="none" stroke-width="1.5"/><g transform="translate(120 93) rotate(0)"><g transform="scale(0.58)"><ellipse cx="0" cy="1" rx="10" ry="5" fill="#ddc8a2" stroke="none" stroke-width="1.5"/><path d="M-10 0Q-11-6-4-9Q1-12 2-18Q10-12 8-7Q16-1 8 3Q0 7-10 0Z" fill="url(#cream)" stroke="#d8c299" stroke-width="1" stroke-linecap="round" stroke-linejoin="round"/><path d="M-5-5Q1-2 6-7" fill="none" stroke="#fffefa" stroke-width="1.6" stroke-linecap="round" stroke-linejoin="round"/></g></g><g transform="translate(136 98) rotate(0)"><g transform="scale(0.6)"><ellipse cx="0" cy="1" rx="10" ry="5" fill="#ddc8a2" stroke="none" stroke-width="1.5"/><path d="M-10 0Q-11-6-4-9Q1-12 2-18Q10-12 8-7Q16-1 8 3Q0 7-10 0Z" fill="url(#cream)" stroke="#d8c299" stroke-width="1" stroke-linecap="round" stroke-linejoin="round"/><path d="M-5-5Q1-2 6-7" fill="none" stroke="#fffefa" stroke-width="1.6" stroke-linecap="round" stroke-linejoin="round"/></g></g><g transform="translate(151 105) rotate(0)"><g transform="scale(0.61)"><ellipse cx="0" cy="1" rx="10" ry="5" fill="#ddc8a2" stroke="none" stroke-width="1.5"/><path d="M-10 0Q-11-6-4-9Q1-12 2-18Q10-12 8-7Q16-1 8 3Q0 7-10 0Z" fill="url(#cream)" stroke="#d8c299" stroke-width="1" stroke-linecap="round" stroke-linejoin="round"/><path d="M-5-5Q1-2 6-7" fill="none" stroke="#fffefa" stroke-width="1.6" stroke-linecap="round" stroke-linejoin="round"/></g></g></svg>