<svg xmlns="http://www.w3.org/2000/svg" width="192" height="280" viewBox="0 0 192 280"><defs><clipPath id="c0"><circle cx="70" cy="63" r="30.96" /></clipPath><clipPath id="c1"><rect x="44.2" y="63" width="51.6" height="20.18" rx="7.74" /></clipPath><clipPath id="c2"><circle cx="70" cy="63" r="30.96" /></clipPath><clipPath id="c3"><circle cx="70" cy="63" r="30.96" /></clipPath><clipPath id="c4"><circle cx="70" cy="63" r="30.96" /></clipPath><clipPath id="c5"><circle cx="70" cy="63" r="30.96" /></clipPath><clipPath id="c6"><circle cx="70" cy="63" r="30.96" /></clipPath><clipPath id="c7"><circle cx="70" cy="63" r="30.96" /></clipPath><clipPath id="c8"><circle cx="70" cy="63" r="30.96" /></clipPath><clipPath id="c9"><circle cx="70" cy="63" r="30.96" /></clipPath><clipPath id="c10"><circle cx="70" cy="63" r="30.96" /></clipPath><clipPath id="c11"><rect x="44.2" y="63" width="51.6" height="20.18" rx="7.74" /></clipPath><clipPath id="c12"><rect x="44.2" y="63" width="51.6" height="20.18" rx="7.74" /></clipPath><clipPath id="c13"><rect x="44.2" y="63" width="51.6" height="20.18" rx="7.74" /></clipPath><clipPath id="c14"><rect x="44.2" y="63" width="51.6" height="20.18" rx="7.74" /></clipPath><clipPath id="c15"><rect x="44.2" y="63" width="51.6" height="20.18" rx="7.74" /></clipPath><clipPath id="c16"><rect x="44.2" y="63" width="51.6" height="20.18" rx="7.74" /></clipPath><clipPath id="c17"><rect x="44.2" y="63" width="51.6" height="20.18" rx="7.74" /></clipPath><clipPath id="c18"><rect x="44.2" y="63" width="51.6" height="20.18" rx="7.74" /></clipPath><clipPath id="c19"><rect x="44.2" y="63" width="51.6" height="20.18" rx="7.74" /></clipPath><clipPath id="c20"><rect x="36.46" y="74.93" width="67.08" height="39.98" rx="4.12" /></clipPath><clipPath id="c21"><polygon points="31.7,142.26 31.7,126.2 31.75,124.12 31.9,122.06 32.14,120 32.49,117.96 32.93,115.94 33.47,113.95 34.1,111.98 34.82,110.05 35.64,108.15 36.55,106.3 37.54,104.5 38.62,102.75 39.78,101.06 41.02,99.43 42.33,97.86 43.72,96.36 45.18,94.93 46.7,93.58 48.29,92.3 49.94,91.11 51.64,90 53.39,88.98 55.19,88.05 57.03,87.21 58.91,86.47 60.83,85.82 62.77,85.26 64.73,84.81 66.72,84.46 68.72,84.2 70.73,84.05 72.74,84 100.1,84 103.46,84.05 106.8,84.2 110.14,84.46 113.44,84.81 116.72,85.26 119.96,85.82 123.14,86.47 126.28,87.21 129.34,88.05 132.34,88.98 135.26,90 138.1,91.11 140.85,92.3 143.49,93.58 146.03,94.93 148.47,96.36 150.78,97.86 152.97,99.43 155.04,101.06 156.97,102.75 158.77,104.5 160.42,106.3 161.93,108.15 163.29,110.05 164.5,111.98 165.55,113.95 166.45,115.94 167.19,117.96 167.76,120 168.17,122.06 168.42,124.12 168.5,126.2 168.5,142.26" /></clipPath><clipPath id="c22"><polygon points="31.7,140.26 168.5,140.26 168.5,168.78 168.4,170.37 168.08,171.94 167.57,173.46 166.86,174.89 165.97,176.22 164.92,177.42 163.72,178.47 162.39,179.36 160.96,180.07 159.44,180.58 157.87,180.9 156.28,181 43.92,181 42.33,180.9 40.76,180.58 39.24,180.07 37.81,179.36 36.48,178.47 35.28,177.42 34.23,176.22 33.34,174.89 32.63,173.46 32.12,171.94 31.8,170.37 31.7,168.78" /></clipPath></defs><g clip-path="url(#c0)"><circle cx="70" cy="63" r="30.96" fill="#c7cdd6"/><rect x="38.04" y="32.04" width="63.92" height="9.45" fill="#b3b9c1"/><rect x="38.04" y="40.89" width="63.92" height="9.45" fill="#b3b9c1"/><rect x="38.04" y="49.73" width="63.92" height="9.45" fill="#b3b9c1"/><rect x="38.04" y="58.58" width="63.92" height="9.45" fill="#b3b9c1"/><rect x="38.04" y="67.42" width="63.92" height="9.45" fill="#b2b7bf"/><rect x="38.04" y="76.27" width="63.92" height="9.45" fill="#acb1b9"/><rect x="38.04" y="85.11" width="63.92" height="9.45" fill="#a6abb3"/></g><circle cx="70" cy="63" r="30.96" fill="none" stroke="rgba(52,58,78,0.34)" stroke-width="2.2" stroke-linejoin="round"/><g clip-path="url(#c1)"><rect x="44.2" y="63" width="51.6" height="20.18" rx="7.74" fill="#c7cdd6"/><rect x="43.2" y="63" width="53.6" height="3.48" fill="#b3b9c1"/><rect x="43.2" y="65.88" width="53.6" height="3.48" fill="#b3b9c1"/><rect x="43.2" y="68.76" width="53.6" height="3.48" fill="#b3b8c0"/><rect x="43.2" y="71.65" width="53.6" height="3.48" fill="#b1b6be"/><rect x="43.2" y="74.53" width="53.6" height="3.48" fill="#afb4bc"/><rect x="43.2" y="77.41" width="53.6" height="3.48" fill="#adb2ba"/><rect x="43.2" y="80.29" width="53.6" height="3.48" fill="#abb1b8"/></g><rect x="44.2" y="63" width="51.6" height="20.18" rx="7.74" fill="none" stroke="rgba(52,58,78,0.34)" stroke-width="2.2" stroke-linejoin="round"/><g clip-path="url(#c2)"><rect x="-16" y="32.04" width="172" height="11.35" rx="0" fill="#b2b7bf"/></g><g clip-path="url(#c3)"><rect x="-16" y="42.79" width="172" height="11.35" rx="0" fill="#a0a5ac"/></g><g clip-path="url(#c4)"><rect x="-16" y="53.54" width="172" height="11.35" rx="0" fill="#90959b"/></g><g clip-path="url(#c5)"><rect x="-16" y="64.29" width="172" height="11.35" rx="0" fill="#84888e"/></g><g clip-path="url(#c6)"><rect x="-16" y="75.04" width="172" height="11.35" rx="0" fill="#7a7e83"/></g><g clip-path="url(#c7)"><rect x="-16" y="85.79" width="172" height="11.35" rx="0" fill="#73777c"/></g><g clip-path="url(#c8)"><rect x="-16" y="96.54" width="172" height="11.35" rx="0" fill="#6f7277"/></g><g clip-path="url(#c9)"><rect x="-16" y="107.29" width="172" height="11.35" rx="0" fill="#6d7176"/></g><g clip-path="url(#c10)"><rect x="-16" y="118.04" width="172" height="11.18" rx="0" fill="#b3b9c1"/></g><g clip-path="url(#c11)"><rect x="-16" y="32.04" width="172" height="11.35" rx="0" fill="#b2b7bf"/></g><g clip-path="url(#c12)"><rect x="-16" y="42.79" width="172" height="11.35" rx="0" fill="#a0a5ac"/></g><g clip-path="url(#c13)"><rect x="-16" y="53.54" width="172" height="11.35" rx="0" fill="#90959b"/></g><g clip-path="url(#c14)"><rect x="-16" y="64.29" width="172" height="11.35" rx="0" fill="#84888e"/></g><g clip-path="url(#c15)"><rect x="-16" y="75.04" width="172" height="11.35" rx="0" fill="#7a7e83"/></g><g clip-path="url(#c16)"><rect x="-16" y="85.79" width="172" height="11.35" rx="0" fill="#73777c"/></g><g clip-path="url(#c17)"><rect x="-16" y="96.54" width="172" height="11.35" rx="0" fill="#6f7277"/></g><g clip-path="url(#c18)"><rect x="-16" y="107.29" width="172" height="11.35" rx="0" fill="#6d7176"/></g><g clip-path="url(#c19)"><rect x="-16" y="118.04" width="172" height="11.18" rx="0" fill="#b3b9c1"/></g><g clip-path="url(#c20)"><rect x="36.46" y="74.93" width="67.08" height="39.98" rx="4.12" fill="#c7cdd6"/><rect x="35.46" y="74.93" width="69.08" height="6.31" fill="#aeb3bb"/><rect x="35.46" y="80.64" width="69.08" height="6.31" fill="#aaafb7"/><rect x="35.46" y="86.35" width="69.08" height="6.31" fill="#a7acb3"/><rect x="35.46" y="92.06" width="69.08" height="6.31" fill="#a3a8af"/><rect x="35.46" y="97.78" width="69.08" height="6.31" fill="#a0a4ac"/><rect x="35.46" y="103.49" width="69.08" height="6.31" fill="#9ca1a8"/><rect x="35.46" y="109.2" width="69.08" height="6.31" fill="#989da4"/></g><rect x="36.46" y="74.93" width="67.08" height="39.98" rx="4.12" fill="none" stroke="rgba(52,58,78,0.34)" stroke-width="2.2" stroke-linejoin="round"/><g clip-path="url(#c21)"><polygon points="31.7,142.26 31.7,126.2 31.75,124.12 31.9,122.06 32.14,120 32.49,117.96 32.93,115.94 33.47,113.95 34.1,111.98 34.82,110.05 35.64,108.15 36.55,106.3 37.54,104.5 38.62,102.75 39.78,101.06 41.02,99.43 42.33,97.86 43.72,96.36 45.18,94.93 46.7,93.58 48.29,92.3 49.94,91.11 51.64,90 53.39,88.98 55.19,88.05 57.03,87.21 58.91,86.47 60.83,85.82 62.77,85.26 64.73,84.81 66.72,84.46 68.72,84.2 70.73,84.05 72.74,84 100.1,84 103.46,84.05 106.8,84.2 110.14,84.46 113.44,84.81 116.72,85.26 119.96,85.82 123.14,86.47 126.28,87.21 129.34,88.05 132.34,88.98 135.26,90 138.1,91.11 140.85,92.3 143.49,93.58 146.03,94.93 148.47,96.36 150.78,97.86 152.97,99.43 155.04,101.06 156.97,102.75 158.77,104.5 160.42,106.3 161.93,108.15 163.29,110.05 164.5,111.98 165.55,113.95 166.45,115.94 167.19,117.96 167.76,120 168.17,122.06 168.42,124.12 168.5,126.2 168.5,142.26" fill="#c7cdd6"/><rect x="30.7" y="84" width="138.8" height="8.92" fill="#a7acb4"/><rect x="30.7" y="92.32" width="138.8" height="8.92" fill="#a2a7ae"/><rect x="30.7" y="100.65" width="138.8" height="8.92" fill="#9da2a9"/><rect x="30.7" y="108.97" width="138.8" height="8.92" fill="#989ca3"/><rect x="30.7" y="117.29" width="138.8" height="8.92" fill="#93979e"/><rect x="30.7" y="125.61" width="138.8" height="8.92" fill="#8d9298"/><rect x="30.7" y="133.94" width="138.8" height="8.92" fill="#888c92"/></g><polygon points="31.7,142.26 31.7,126.2 31.75,124.12 31.9,122.06 32.14,120 32.49,117.96 32.93,115.94 33.47,113.95 34.1,111.98 34.82,110.05 35.64,108.15 36.55,106.3 37.54,104.5 38.62,102.75 39.78,101.06 41.02,99.43 42.33,97.86 43.72,96.36 45.18,94.93 46.7,93.58 48.29,92.3 49.94,91.11 51.64,90 53.39,88.98 55.19,88.05 57.03,87.21 58.91,86.47 60.83,85.82 62.77,85.26 64.73,84.81 66.72,84.46 68.72,84.2 70.73,84.05 72.74,84 100.1,84 103.46,84.05 106.8,84.2 110.14,84.46 113.44,84.81 116.72,85.26 119.96,85.82 123.14,86.47 126.28,87.21 129.34,88.05 132.34,88.98 135.26,90 138.1,91.11 140.85,92.3 143.49,93.58 146.03,94.93 148.47,96.36 150.78,97.86 152.97,99.43 155.04,101.06 156.97,102.75 158.77,104.5 160.42,106.3 161.93,108.15 163.29,110.05 164.5,111.98 165.55,113.95 166.45,115.94 167.19,117.96 167.76,120 168.17,122.06 168.42,124.12 168.5,126.2 168.5,142.26" fill="none" stroke="rgba(52,58,78,0.34)" stroke-width="2.2" stroke-linejoin="round"/><ellipse cx="70" cy="58.11" rx="32.64" ry="8.19" fill="#f5f2e4" opacity="0.01"/><ellipse cx="70" cy="58.11" rx="26.11" ry="6.55" fill="#f5f2e4" opacity="0.05"/><ellipse cx="70" cy="58.11" rx="19.58" ry="4.92" fill="#f5f2e4" opacity="0.09"/><g clip-path="url(#c22)"><polygon points="31.7,140.26 168.5,140.26 168.5,168.78 168.4,170.37 168.08,171.94 167.57,173.46 166.86,174.89 165.97,176.22 164.92,177.42 163.72,178.47 162.39,179.36 160.96,180.07 159.44,180.58 157.87,180.9 156.28,181 43.92,181 42.33,180.9 40.76,180.58 39.24,180.07 37.81,179.36 36.48,178.47 35.28,177.42 34.23,176.22 33.34,174.89 32.63,173.46 32.12,171.94 31.8,170.37 31.7,168.78" fill="#b46d52"/><rect x="30.7" y="140.26" width="138.8" height="6.42" fill="#784937"/><rect x="30.7" y="146.08" width="138.8" height="6.42" fill="#754735"/><rect x="30.7" y="151.9" width="138.8" height="6.42" fill="#724534"/><rect x="30.7" y="157.72" width="138.8" height="6.42" fill="#6e4332"/><rect x="30.7" y="163.54" width="138.8" height="6.42" fill="#6b4131"/><rect x="30.7" y="169.36" width="138.8" height="6.42" fill="#683f2f"/><rect x="30.7" y="175.18" width="138.8" height="6.42" fill="#653d2e"/></g><polygon points="31.7,140.26 168.5,140.26 168.5,168.78 168.4,170.37 168.08,171.94 167.57,173.46 166.86,174.89 165.97,176.22 164.92,177.42 163.72,178.47 162.39,179.36 160.96,180.07 159.44,180.58 157.87,180.9 156.28,181 43.92,181 42.33,180.9 40.76,180.58 39.24,180.07 37.81,179.36 36.48,178.47 35.28,177.42 34.23,176.22 33.34,174.89 32.63,173.46 32.12,171.94 31.8,170.37 31.7,168.78" fill="none" stroke="rgba(52,58,78,0.34)" stroke-width="2.2" stroke-linejoin="round"/></svg>